<?xml version="1.0" encoding="UTF-8" standalone="no"?><!DOCTYPE svg PUBLIC "-//W3C//DTD SVG 1.1//EN" "http://www.w3.org/Graphics/SVG/1.1/DTD/svg11.dtd"><svg width="100%" height="100%" viewBox="0 0 5571 3930" version="1.1" xmlns="http://www.w3.org/2000/svg" xmlns:xlink="http://www.w3.org/1999/xlink" xml:space="preserve" xmlns:serif="http://www.serif.com/" style="fill-rule:evenodd;clip-rule:evenodd;stroke-linejoin:round;stroke-miterlimit:2;"><g><path d="M5284.71,3927.9l-5001.58,0c-156.425,0 -283.158,-126.771 -283.158,-283.196l0,-3361.51c0,-156.408 126.733,-283.196 283.158,-283.196l5001.58,0c156.425,0 283.163,126.788 283.163,283.196l0,3361.51c0,156.425 -126.738,283.196 -283.163,283.196Zm65.096,-3703.78l-5131.75,0l0,3399.21l5131.75,0l0,-3399.21Z" style="fill:url(#_Linear1);fill-rule:nonzero;"/></g><g><rect x="502.958" y="1388.65" width="1243" height="2027.81" style="fill:url(#_Linear2);"/><rect x="502.958" y="471.034" width="4564.92" height="716.924" style="fill:url(#_Linear3);"/><rect x="3824.88" y="1388.65" width="1243" height="2027.81" style="fill:url(#_Linear4);"/><rect x="2137.53" y="1388.65" width="1243" height="2027.81" style="fill:url(#_Linear5);"/></g><defs><linearGradient id="_Linear1" x1="0" y1="0" x2="1" y2="0" gradientUnits="userSpaceOnUse" gradientTransform="matrix(935.1,3703.78,-2612.85,659.67,1850.32,224.117)"><stop offset="0" style="stop-color:#495fdd;stop-opacity:1"/><stop offset="1" style="stop-color:#26378f;stop-opacity:1"/></linearGradient><linearGradient id="_Linear2" x1="0" y1="0" x2="1" y2="0" gradientUnits="userSpaceOnUse" gradientTransform="matrix(1.0247e-12,-2027.81,3308.15,1.67168e-12,1124.46,3416.47)"><stop offset="0" style="stop-color:#fff;stop-opacity:1"/><stop offset="0" style="stop-color:#213187;stop-opacity:1"/><stop offset="1" style="stop-color:#495fdd;stop-opacity:1"/></linearGradient><linearGradient id="_Linear3" x1="0" y1="0" x2="1" y2="0" gradientUnits="userSpaceOnUse" gradientTransform="matrix(3.76321e-12,-716.924,12149.2,5.91015e-13,2785.42,1187.96)"><stop offset="0" style="stop-color:#fff;stop-opacity:1"/><stop offset="0" style="stop-color:#213187;stop-opacity:1"/><stop offset="1" style="stop-color:#495fdd;stop-opacity:1"/></linearGradient><linearGradient id="_Linear4" x1="0" y1="0" x2="1" y2="0" gradientUnits="userSpaceOnUse" gradientTransform="matrix(1.0247e-12,-2027.81,3308.15,1.67168e-12,4446.38,3416.47)"><stop offset="0" style="stop-color:#fff;stop-opacity:1"/><stop offset="0" style="stop-color:#213187;stop-opacity:1"/><stop offset="1" style="stop-color:#495fdd;stop-opacity:1"/></linearGradient><linearGradient id="_Linear5" x1="0" y1="0" x2="1" y2="0" gradientUnits="userSpaceOnUse" gradientTransform="matrix(1.0247e-12,-2027.81,3308.15,1.67168e-12,2759.03,3416.47)"><stop offset="0" style="stop-color:#fff;stop-opacity:1"/><stop offset="0" style="stop-color:#213187;stop-opacity:1"/><stop offset="1" style="stop-color:#495fdd;stop-opacity:1"/></linearGradient></defs></svg>