<?xml version="1.0" encoding="UTF-8" standalone="no"?><!DOCTYPE svg PUBLIC "-//W3C//DTD SVG 1.1//EN" "http://www.w3.org/Graphics/SVG/1.1/DTD/svg11.dtd"><svg width="100%" height="100%" viewBox="0 0 1337 943" version="1.1" xmlns="http://www.w3.org/2000/svg" xmlns:xlink="http://www.w3.org/1999/xlink" xml:space="preserve" xmlns:serif="http://www.serif.com/" style="fill-rule:evenodd;clip-rule:evenodd;stroke-linejoin:round;stroke-miterlimit:2;"><g><path d="M1268.33,942.696l-1200.38,0c-37.542,0 -67.958,-30.425 -67.958,-67.967l0,-806.762c0,-37.538 30.416,-67.967 67.958,-67.967l1200.38,0c37.542,0 67.959,30.429 67.959,67.967l0,806.762c0,37.542 -30.417,67.967 -67.959,67.967Z" style="fill:#9393ff;fill-rule:nonzero;"/><rect x="52.333" y="53.788" width="1231.62" height="815.811" style="fill:#fff;fill-rule:nonzero;"/></g><rect x="123.042" y="265.712" width="220.463" height="532.818" style="fill:#9393ff;fill-rule:nonzero;"/><rect x="1002.16" y="265.712" width="220.463" height="532.818" style="fill:#9393ff;fill-rule:nonzero;"/><rect x="709.122" y="265.712" width="220.463" height="532.818" style="fill:#9393ff;fill-rule:nonzero;"/><rect x="416.082" y="265.712" width="220.463" height="532.818" style="fill:#9393ff;fill-rule:nonzero;"/><rect x="127.042" y="110.867" width="1095.58" height="117.521" style="fill:#9393ff;fill-rule:nonzero;"/></svg>