<?xml version="1.0" encoding="UTF-8" standalone="no"?><!DOCTYPE svg PUBLIC "-//W3C//DTD SVG 1.1//EN" "http://www.w3.org/Graphics/SVG/1.1/DTD/svg11.dtd"><svg width="100%" height="100%" viewBox="0 0 52188 34725" version="1.1" xmlns="http://www.w3.org/2000/svg" xmlns:xlink="http://www.w3.org/1999/xlink" xml:space="preserve" xmlns:serif="http://www.serif.com/" style="fill-rule:evenodd;clip-rule:evenodd;stroke-linejoin:round;stroke-miterlimit:2;"><g><path d="M39626,22850.7c-1477.08,0 -2674.48,-1197.39 -2674.48,-2674.48c0.001,-1476.91 1197.4,-2674.31 2674.48,-2674.31c1477.08,0 2674.48,1197.4 2674.48,2674.31c0,1477.08 -1197.4,2674.48 -2674.48,2674.48Zm3480.55,-3576.22c-84.546,-327.604 -214.409,-636.804 -382.117,-921.179l389.063,-585.071l-539.759,-539.721l-539.583,-539.688l-585.067,389.009c-284.375,-167.688 -593.75,-297.5 -921.358,-382.134l-138.542,-688.196l-1526.39,0l-138.542,688.196c-327.604,84.634 -636.975,214.446 -921.354,382.134l-584.896,-389.009l-539.758,539.688l-539.754,539.721l389.062,585.07c-167.708,284.375 -297.566,593.575 -382.116,921.18l-688.196,138.541l0,1526.56l688.196,138.366c84.55,327.605 214.408,636.98 382.116,921.355l-389.062,585.07l539.754,539.759l539.758,539.583l584.896,-388.892c284.379,167.538 593.75,297.396 921.354,381.946l138.542,688.367l1526.39,0l138.542,-688.367c327.608,-84.55 636.983,-214.408 921.358,-381.946l585.067,388.892l1079.34,-1079.34l-389.063,-585.07c167.708,-284.375 297.571,-593.75 382.117,-921.355l688.196,-138.366l0,-1526.56l-688.196,-138.541Z" style="fill:url(#_Linear1);"/><path d="M43070.8,27040.3c-677.083,0 -1226.04,-548.959 -1226.04,-1226.04c0,-677.083 548.958,-1226.04 1226.04,-1226.04c677.255,0 1226.22,548.959 1226.22,1226.04c0,677.083 -548.962,1226.04 -1226.22,1226.04Zm1595.66,-1639.41c-38.713,-150.171 -98.263,-292.012 -175.175,-422.396l178.475,-268.229l-247.571,-247.396l-247.396,-247.395l-268.054,178.3c-130.383,-76.909 -272.221,-136.459 -422.396,-175.175l-63.542,-315.45l-699.825,0l-63.541,315.45c-150.175,38.716 -292.017,98.266 -422.225,175.175l-268.225,-178.3l-247.571,247.395l-247.396,247.396l178.471,268.229c-76.913,130.384 -136.458,272.225 -175.175,422.396l-315.621,63.371l0,699.825l315.621,63.542c38.717,150.175 98.262,292.012 175.175,422.395l-178.471,268.23l247.396,247.395l247.571,247.396l268.225,-178.3c130.208,76.913 272.05,136.288 422.225,175.175l63.541,315.45l699.825,0l63.542,-315.45c150.175,-38.887 292.013,-98.262 422.221,-175.175l268.229,178.3l247.396,-247.396l247.571,-247.395l-178.475,-268.23c76.912,-130.383 136.462,-272.22 175.175,-422.395l315.625,-63.542l0,-699.825l-315.625,-63.371Z" style="fill:url(#_Linear2);"/><path d="M2407.48,11123.8c0,0 2941.86,-1264.27 4078.07,449.221c1136.22,1713.5 -455.504,1606.8 -455.504,1606.8c0,0 -88.437,792.204 -1591.06,-1082.67c-708.263,-883.7 -2031.51,-973.354 -2031.51,-973.354Z" style="fill:#bbd070;fill-rule:nonzero;"/><path d="M1894.39,6239.33c0,0 2611.44,-809.95 4330.83,2502.46c1719.36,3312.41 3265.14,3574.25 3265.14,3574.25c-0.001,0 -5906.54,1059.83 -7595.96,-6076.71l-0.012,-0.009Z" style="fill:#97a43c;fill-rule:nonzero;"/><path d="M8404.38,12507.2c-228.696,1101.27 -2749.43,-1022.31 -2997.67,-2926.67c-248.233,-1904.34 246.075,-3301.61 -255,-4523.17c0,0 4378.79,2026.88 3252.67,7449.83Z" style="fill:#48753a;fill-rule:nonzero;"/><path d="M9086.38,6990.75c-103.904,0 -203.317,15.317 -294.896,43.317c-120.729,-292.934 -420.712,-500.384 -771.754,-500.384c-390.154,0 -717.342,256.359 -805.208,601.529c-67.413,-25.466 -140.85,-39.545 -217.829,-39.545c-324.792,0 -588.109,250.258 -588.109,559.008l3506.3,0c0,-366.65 -370.954,-663.925 -828.508,-663.925Z" style="fill:#ebebeb;fill-rule:nonzero;"/><path d="M3890.99,9199.17c-79.221,0 -155.038,11.683 -224.846,33.037c-92.067,-223.366 -320.8,-381.546 -588.471,-381.546c-297.5,0 -546.962,195.488 -613.979,458.684c-51.404,-19.429 -107.392,-30.175 -166.092,-30.175c-247.654,0 -448.437,190.85 -448.437,426.25l2673.56,0c0,-279.563 -282.829,-506.25 -631.733,-506.25Z" style="fill:#ebebeb;fill-rule:nonzero;"/><path d="M37478.7,29776.4l-31701.4,0c-803.388,0 -1454.67,-651.387 -1454.67,-1454.69l0,-17633.1c0,-803.387 651.283,-1454.67 1454.67,-1454.67l31701.4,0c803.475,0 1454.69,651.284 1454.69,1454.67l0,17633.1c0,803.3 -651.212,1454.69 -1454.69,1454.69Z" style="fill:#005ca6;fill-rule:nonzero;"/><path d="M9884.88,5117.67c-731.858,0 -1325.16,-593.279 -1325.16,-1325.15c0,-731.858 593.3,-1325.15 1325.16,-1325.15c731.858,0 1325.15,593.296 1325.15,1325.15c0,731.876 -593.296,1325.15 -1325.15,1325.15Zm1724.6,-1771.96c-41.929,-162.308 -106.267,-315.591 -189.342,-456.496l192.746,-289.879l-267.416,-267.412l-267.396,-267.413l-289.896,192.759c-140.9,-83.105 -294.183,-147.429 -456.492,-189.354l-68.629,-340.992l-756.354,0l-68.629,340.991c-162.309,41.925 -315.588,106.25 -456.492,189.355l-289.879,-192.759l-267.429,267.413l-267.413,267.412l192.759,289.88c-83.088,140.904 -147.413,294.187 -189.338,456.495l-341.008,68.63l0,756.349l341.008,68.65c41.925,162.309 106.25,315.571 189.338,456.492l-192.759,289.879l267.413,267.413l267.429,267.412l289.879,-192.758c140.904,83.088 294.183,147.413 456.492,189.338l68.629,341.008l756.354,0l68.629,-341.008c162.309,-41.925 315.592,-106.25 456.492,-189.338l289.896,192.758l267.416,-267.412l267.396,-267.413l-192.746,-289.879c83.075,-140.921 147.413,-294.183 189.342,-456.491l341.004,-68.65l0,-756.35l-341.004,-68.63Z" style="fill:url(#_Linear3);"/><path d="M43645.1,10498.1c-1167.22,0 -2113.45,-946.2 -2113.45,-2113.44c0,-1167.21 946.233,-2113.44 2113.45,-2113.44c1167.22,0 2113.44,946.227 2113.44,2113.44c0,1167.24 -946.227,2113.44 -2113.44,2113.44Zm2750.51,-2826.03c-66.871,-258.86 -169.481,-503.326 -301.974,-728.05l307.403,-462.318l-426.493,-426.487l-426.461,-426.487l-462.345,307.424c-224.716,-132.54 -469.183,-235.13 -728.042,-301.995l-109.455,-543.836l-1206.28,0l-109.454,543.836c-258.86,66.865 -503.32,169.455 -728.043,301.995l-462.318,-307.424l-426.514,426.487l-426.487,426.487l307.424,462.318c-132.514,224.724 -235.103,469.19 -301.968,728.05l-543.862,109.454l0,1206.28l543.862,109.487c66.865,258.86 169.454,503.293 301.968,728.043l-307.424,462.318l426.487,426.487l426.514,426.487l462.318,-307.423c224.723,132.513 469.183,235.103 728.043,301.967l109.454,543.863l1206.28,0l109.455,-543.863c258.859,-66.864 503.326,-169.454 728.042,-301.967l462.345,307.423l426.494,-426.487l426.46,-426.487l-307.403,-462.318c132.493,-224.75 235.103,-469.183 301.974,-728.043l543.856,-109.487l0,-1206.28l-543.856,-109.454Z" style="fill:url(#_Linear4);"/><path d="M11591.8,7193.58c-335.521,0 -607.517,-271.979 -607.517,-607.516c0,-335.505 271.996,-607.5 607.517,-607.5c335.521,0 607.516,271.995 607.516,607.5c0,335.537 -271.995,607.516 -607.516,607.516Zm790.641,-812.341c-19.233,-74.413 -48.733,-144.671 -86.804,-209.288l88.35,-132.883l-245.191,-245.192l-132.88,88.371c-64.604,-38.092 -134.862,-67.592 -209.291,-86.808l-31.459,-156.321l-346.733,0l-31.475,156.321c-74.412,19.216 -144.671,48.716 -209.271,86.808l-132.9,-88.371l-122.587,122.604l-122.604,122.588l88.366,132.883c-38.091,64.617 -67.587,134.875 -86.787,209.288l-156.338,31.458l0,346.754l156.338,31.459c19.2,74.408 48.695,144.687 86.787,209.27l-88.367,132.896l122.605,122.609l122.587,122.583l132.9,-88.367c64.6,38.092 134.859,67.588 209.271,86.804l31.475,156.321l346.733,0l31.459,-156.321c74.429,-19.216 144.687,-48.712 209.291,-86.804l132.88,88.367l122.604,-122.583l122.587,-122.609l-88.35,-132.896c38.071,-64.583 67.571,-134.862 86.804,-209.27l156.305,-31.459l0,-346.754l-156.305,-31.458Z" style="fill:url(#_Linear5);"/><path d="M2994.63,16230.3l-499.337,-435.329c-40.954,-35.696 -45.209,-97.829 -9.517,-138.787c35.696,-40.938 97.833,-45.188 138.788,-9.496l353.108,307.829l503.558,-561.646c36.267,-40.433 98.454,-43.837 138.904,-7.587c40.434,36.283 43.821,98.454 7.571,138.904l-633.075,706.112Z" style="fill:#ffd179;fill-rule:nonzero;"/><path d="M29553.1,8011.38l799.133,0l-244.62,-507.242l-798.955,0l244.442,507.242Z" style="fill:#ffdc7d;fill-rule:nonzero;"/><path d="M29179.3,8011.38l190.45,0l-244.616,-507.242l-190.454,0l244.62,507.242Z" style="fill:#ffdc7d;fill-rule:nonzero;"/><path d="M26418.8,7407.29l3235.42,0l-107.467,-253.63l-3235.24,0.001l107.292,253.629Z" style="fill:#ffdc7d;fill-rule:nonzero;"/><path d="M2175.85,12692.3l842.588,0l-257.9,-534.896l-842.588,0.001l257.9,534.895Z" style="fill:#ffd179;fill-rule:nonzero;"/><path d="M1781.58,12692.3l200.784,0l-257.9,-534.896l-200.784,0.001l257.9,534.895Z" style="fill:#ffd179;fill-rule:nonzero;"/><rect x="10179" y="15280.1" width="4270.46" height="4270.38" style="fill:#4ba2f4;"/><rect x="5584" y="10682" width="4270.46" height="4270.46" style="fill:#f0f0f0;"/><rect x="17401.4" y="15259.9" width="4270.5" height="4270.5" style="fill:#f0f0f0;"/><rect x="10179" y="19854.9" width="4270.46" height="4270.5" style="fill:#ffdf69;"/><rect x="17401.4" y="24450.2" width="4270.5" height="4270.33" style="fill:#ffdf69;"/><rect x="5584" y="19865.1" width="4270.46" height="4270.5" style="fill:#f0f0f0;"/><path d="M26266.7,24450.2c0,0 -2.95,1976.56 -466.321,3652.25l-987.5,618.058l-3482.12,0c661.634,-1760.42 665.625,-4270.33 665.625,-4270.33l4270.33,0l-0.021,0.021Z" style="fill:#f0f0f0;fill-rule:nonzero;"/><path d="M24812.8,28720.5l0,-632.292l987.5,0l-987.5,632.292Z" style="fill:#c9c9c9;fill-rule:nonzero;"/><path d="M21671.7,19854.9c0,0 -2.95,1976.73 -466.316,3652.43l-987.5,618.054l-3482.16,0c661.492,-1760.59 665.488,-4270.5 665.488,-4270.5l4270.5,0l-0.017,0.017Z" style="fill:#ffdf69;fill-rule:nonzero;"/><path d="M20217.9,24125.3l0,-632.462l987.5,0l-987.5,632.462Z" style="fill:#deba35;fill-rule:nonzero;"/><rect x="21996.5" y="10685.1" width="4270.5" height="4270.46" style="fill:#f0f0f0;"/><path d="M21671.7,10685.1c0,0 -2.95,1976.7 -466.316,3652.35l-987.5,618.108l-3482.16,0c661.492,-1760.5 665.488,-4270.46 665.488,-4270.46l4270.5,0l-0.017,0.004Z" style="fill:#4ba2f4;fill-rule:nonzero;"/><path d="M20217.9,14955.6l0,-632.433l987.5,0l-987.5,632.433Z" style="fill:#418dd4;fill-rule:nonzero;"/><path d="M9854.25,24450.2c0,0 -2.971,1976.56 -466.321,3652.25l-987.604,618.058l-3482.07,0c661.546,-1760.42 665.538,-4270.33 665.538,-4270.33l4270.46,0l-0.004,0.021Z" style="fill:#f0f0f0;fill-rule:nonzero;"/><path d="M8400.33,28720.5l0,-632.292l987.604,0l-987.604,632.292Z" style="fill:#c9c9c9;fill-rule:nonzero;"/><rect x="28951.6" y="15280.1" width="4270.5" height="4270.38" style="fill:#4ba2f4;"/><rect x="28951.6" y="10682" width="4270.5" height="4270.46" style="fill:#f0f0f0;"/><rect x="33546.5" y="10682" width="4270.5" height="4270.46" style="fill:#f0f0f0;"/><rect x="33546.5" y="19854.9" width="4270.5" height="4270.5" style="fill:#4ba2f4;"/><rect x="33546.5" y="24450.2" width="4270.5" height="4270.33" style="fill:#f0f0f0;"/><rect x="28951.6" y="19865.1" width="4270.5" height="4270.5" style="fill:#f0f0f0;"/><path d="M33221.9,24450.2c0,0 -3.125,1976.56 -466.492,3652.25l-987.504,618.058l-3482.12,0c661.633,-1760.42 665.625,-4270.33 665.625,-4270.33l4270.5,0l-0.013,0.021Z" style="fill:#f0f0f0;fill-rule:nonzero;"/><path d="M31767.9,28720.5l0,-632.292l987.504,0l-987.504,632.292Z" style="fill:#c9c9c9;fill-rule:nonzero;"/><path d="M26266.7,19854.9c0,0 -2.95,1976.73 -466.321,3652.43l-987.5,618.054l-3482.12,0c661.634,-1760.59 665.625,-4270.5 665.625,-4270.5l4270.33,0l-0.021,0.017Z" style="fill:#f0f0f0;fill-rule:nonzero;"/><path d="M24812.8,24125.3l0,-632.462l987.5,0l-987.5,632.462Z" style="fill:#c9c9c9;fill-rule:nonzero;"/><rect x="48462.1" y="21922.6" width="1924.48" height="135.071" style="fill:#ffd887;"/><rect x="48462.1" y="22176.9" width="1924.48" height="567.188" style="fill:#ffd887;"/><rect x="48462.1" y="21218" width="1924.48" height="567.188" style="fill:#ffd887;"/><rect x="16589.5" y="7840.42" width="1042.28" height="77.813" style="fill:#ffdc7d;"/><rect x="16589.5" y="7952.25" width="1042.28" height="210.729" style="fill:#ffdc7d;"/><rect x="50702.5" y="21195.5" width="84.725" height="1589.24" style="fill:#ffd989;"/><rect x="15686.9" y="9233.96" width="268.596" height="20542.4" style="fill:url(#_Linear6);"/><rect x="27475" y="9233.96" width="268.575" height="20542.4" style="fill:url(#_Linear7);"/><rect x="17567.9" y="8818.92" width="7867" height="834.879" style="fill:url(#_Linear8);"/><path d="M19698.4,5640.83l-673.788,-292.812c-55.204,-24.013 -80.55,-88.263 -56.592,-143.509c23.955,-55.241 88.192,-80.554 143.571,-56.562l476.392,207.067l344.096,-762.517c24.829,-54.913 89.412,-79.342 144.271,-54.55c54.862,24.775 79.341,89.358 54.516,144.271l-432.466,958.612Z" style="fill:#ffdc7d;fill-rule:nonzero;"/><path d="M48247.7,15858.3l-1174.99,-510.622c-96.268,-41.875 -140.468,-153.917 -98.688,-250.258c41.773,-96.333 153.793,-140.475 250.367,-98.637l830.757,361.094l600.052,-1329.72c43.299,-95.759 155.923,-138.36 251.588,-95.127c95.672,43.204 138.36,155.828 95.069,251.587l-754.159,1671.68Z" style="fill:#ffdc7d;fill-rule:nonzero;"/><path d="M4613.76,31576.1l-809.17,-993.263c-66.279,-81.414 -54.077,-201.24 27.286,-267.626c81.353,-66.383 201.133,-54.14 267.699,27.381l572.082,702.332l1143.77,-905.536c82.444,-65.173 202.052,-51.284 267.171,31.059c65.139,82.321 51.327,201.969 -31.111,267.145l-1437.73,1138.51Z" style="fill:#ffdc7d;fill-rule:nonzero;"/><path d="M18993.9,4191.21c-532.467,374.221 -661.288,1111.91 -287.155,1644.47c374.305,532.55 1111.98,661.354 1644.62,287.15c532.467,-374.217 661.283,-1111.92 287.154,-1644.46c-374.304,-532.55 -1111.98,-661.37 -1644.62,-287.154Zm1470.48,2092.57c-621.354,436.596 -1481.94,286.317 -1918.58,-335.004c-436.458,-621.3 -286.283,-1481.96 335.071,-1918.53c621.35,-436.596 1481.94,-286.317 1918.58,334.983c436.458,621.321 286.283,1481.98 -335.071,1918.55Z" style="fill:#ffdc7d;fill-rule:nonzero;"/><path d="M47019.1,13330.4c-928.544,652.587 -1153.19,1939.01 -500.755,2867.71c652.731,928.689 1939.13,1153.31 2867.97,500.747c928.544,-652.579 1153.18,-1939.03 500.755,-2867.7c-652.732,-928.689 -1939.13,-1153.33 -2867.97,-500.755Zm2564.31,3649.14c-1083.55,761.359 -2584.29,499.294 -3345.71,-584.198c-761.119,-1083.46 -499.236,-2584.33 584.315,-3345.63c1083.54,-761.359 2584.29,-499.294 3345.71,584.162c761.119,1083.49 499.236,2584.36 -584.314,3345.66Z" style="fill:#ffdc7d;fill-rule:nonzero;"/><path d="M4683.6,28766.3c-1124.54,153.178 -1914.97,1192.69 -1762,2317.3c153.24,1124.74 1192.74,1915.12 2317.53,1762.11c1124.54,-153.171 1914.97,-1192.71 1761.99,-2317.29c-153.24,-1124.74 -1192.73,-1915.15 -2317.53,-1762.12Zm601.686,4419.26c-1312.19,178.6 -2524.89,-743.5 -2703.57,-2055.67c-178.431,-1312 743.568,-2524.89 2055.74,-2703.44c1312.19,-178.603 2524.89,743.5 2703.59,2055.64c178.414,1312.03 -743.586,2524.92 -2055.75,2703.47Z" style="fill:#ffdc7d;fill-rule:nonzero;"/><path d="M29767.2,2207.12c-418.23,5.8 -753.817,350.8 -747.917,769.029c3.471,254.791 133.679,489.408 348.438,627.637l8.162,5.229l4.163,8.751c58.508,123.85 134.55,310.499 164.237,496.283l0.346,2.55c5.729,69.062 43.229,131.65 105.558,176.25c64.063,45.817 146.525,67.187 231.767,60.071c173.787,-14.446 305.558,-143.959 293.579,-288.679l-0.175,-1.305l0,-1.283c-0.867,-144.742 23.958,-310.921 73.958,-493.908l2.779,-10.33l8.334,-6.804c178.471,-147.466 278.991,-364.533 275.696,-595.537c-5.73,-418.234 -350.696,-753.767 -768.925,-747.954Zm88.887,2214.67c-89.929,1.25 -176.041,-24.545 -245.137,-73.958c-78.475,-56.042 -125.867,-135.658 -133.509,-224.287c-28.125,-173.367 -98.608,-348.75 -154.512,-468.284c-228.821,-151.158 -367.538,-403.954 -371.354,-678.175c-6.25,-455.504 359.204,-831.212 814.758,-837.55c455.379,-6.321 831.075,359.096 837.5,814.596c3.471,247.988 -102.954,481.217 -292.017,641.633c-46.525,172.45 -69.616,328.58 -68.921,464.205c14.238,181.333 -144.791,342.812 -355.383,360.296c-10.592,0.866 -21.004,1.387 -31.425,1.524Z" style="fill:#ffdc7d;fill-rule:nonzero;"/><path d="M38124.7,5422.24c-366.483,-201.592 -828.705,-67.446 -1030.21,299.087c-122.868,223.236 -125.579,491.549 -7.158,717.834l4.513,8.579l-0.704,9.664c-10.323,136.586 -36.429,336.433 -102.408,512.625l-0.959,2.388c-29.141,62.875 -27.46,135.817 4.695,205.389c33.06,71.485 94.196,130.808 171.823,166.736c158.232,73.304 336.785,25.807 397.872,-105.935l0.492,-1.221l0.635,-1.115c70.759,-126.27 174.446,-258.485 308.326,-392.874l7.52,-7.608l10.607,-1.798c228.025,-40.033 422.667,-179.092 533.933,-381.56c201.656,-366.452 67.512,-828.61 -298.977,-1030.19Zm-1016.92,1969.4c-78.804,-43.345 -140.927,-108.318 -176.587,-185.417c-40.539,-87.496 -42.406,-180.131 -5.261,-260.963c61.203,-164.624 86.575,-351.93 97.029,-483.476c-124.259,-244.474 -119.964,-532.796 12.203,-773.095c219.617,-399.113 722.978,-545.202 1122.18,-325.635c399.04,219.494 545.136,722.815 325.673,1122.01c-119.506,217.321 -327.266,367.514 -570.898,413.573c-125.653,126.945 -222.868,251.278 -289.271,369.537c-77.213,164.69 -295.259,226.512 -486.99,137.665c-9.637,-4.48 -18.947,-9.171 -28.075,-14.2Z" style="fill:#ffdc7d;fill-rule:nonzero;"/><path d="M29678.5,4154.88l-188.366,-887.05l200.866,137.867l104.342,-139.067l111.113,111.704l161.458,-163.733l-25.696,907.675l-67.533,-1.892l20.833,-736.058l-88.892,90.067l-104.166,-104.688l-96.354,128.388l-114.755,-78.788l153.296,721.529l-66.146,14.046Z" style="fill:#ffdc7d;fill-rule:nonzero;"/><path d="M37085.3,7071.84l274.496,-864.287l106.522,219.106l159.425,-69.355l41.414,152.016l221.271,-62.582l-470.796,776.457l-57.78,-35.011l381.778,-629.652l-121.784,34.387l-38.842,-142.483l-147.205,64.017l-60.843,-125.196l-223.208,703.052l-64.448,-20.469Z" style="fill:#ffdc7d;fill-rule:nonzero;"/><path d="M30191.7,4549.25l-584.03,48.488l-19.616,-235.33l584.029,-48.487l19.617,235.329Z" style="fill:#ffdc7d;fill-rule:nonzero;"/><path d="M37336.6,7668.28l-531.723,-246.396l99.214,-214.292l531.724,246.395l-99.215,214.293Z" style="fill:#ffdc7d;fill-rule:nonzero;"/><path d="M30277.4,4444.58l-771.7,64.079l-31.596,-378.837l771.875,-64.079l31.421,378.837Z" style="fill:#ffdc7d;fill-rule:nonzero;"/><path d="M37462.9,7619.64l-702.592,-325.563l159.702,-344.98l702.745,325.649l-159.855,344.894Z" style="fill:#ffdc7d;fill-rule:nonzero;"/><path d="M12547.6,19045c0,0 494.321,83.334 410.467,857.292c-83.837,773.958 -520.171,705.729 -549.375,704.513c-29.2,-1.042 -438.887,9.375 -460.5,-936.805c0,0 -6.304,-699.654 599.408,-625Z" style="fill:#eea987;fill-rule:nonzero;"/><path d="M12764.2,20395.3c0,0 -18.975,320.834 11.091,390.28c30.088,69.27 -394.979,286.283 -660.329,36.458c0,0 53.667,-348.267 36.996,-471.183c-16.662,-122.917 612.242,44.445 612.242,44.445Z" style="fill:#eea987;fill-rule:nonzero;"/><path d="M12968.1,19683.5c0,0 54.858,-57.292 74.079,1.563c19.271,58.854 -69.358,312.67 -80.937,331.595c0,0 -10.138,22.571 -23.021,9.896c-12.883,-12.675 29.879,-343.054 29.879,-343.054Z" style="fill:#eea987;fill-rule:nonzero;"/><path d="M11953.9,19662.7c0,0 -52.45,-59.55 -74.112,-1.563c-21.65,57.983 57.412,318.575 67.254,334.546c0,0 17.033,26.738 30.416,14.758c13.388,-12.154 -23.558,-347.741 -23.558,-347.741Z" style="fill:#eea987;fill-rule:nonzero;"/><path d="M12185.8,20503.5c0,0 78.904,109.55 262.221,105.384c183.3,-4.167 262.867,-99.825 262.867,-99.825c0,0 -86.771,181.596 -263.733,179.687c-176.98,-1.912 -261.355,-185.246 -261.355,-185.246Z" style="fill:#c78d71;fill-rule:nonzero;"/><path d="M10923.2,30455.4c0,0 -67.567,151.908 -124.546,212.15c-56.962,60.071 -275.104,167.708 -276.287,346.529c-1.284,193.925 367.729,140.104 512.05,132.988c144.304,-7.121 155.225,-110.592 216.008,-220.488c60.763,-109.721 122.013,-91.146 133.4,-179.687c11.392,-88.542 -46.525,-286.804 -46.525,-286.804l-414.1,-4.688Z" style="fill:#1d2033;fill-rule:nonzero;"/><path d="M10917,30399.3l-10.554,91.841c0,0 226.979,76.217 441.562,7.988l-11.962,-125.696l-419.046,25.867Z" style="fill:#50558a;fill-rule:nonzero;"/><path d="M20021.7,30808.3l-51.908,-2.083l261.288,-6561.79l-4520.58,0l-261.458,6563.88l-51.929,-2.083l263.454,-6613.71l4624.71,0l-263.546,6615.79l-0.025,0Z" style="fill:#1a598c;fill-rule:nonzero;"/><path d="M20445.1,30808.3l-261.458,-6563.88l-4520.71,0l261.388,6561.79l-51.929,2.083l-263.521,-6615.79l4624.75,0l263.371,6613.71l-51.913,2.083l0.021,0Z" style="fill:#1a598c;fill-rule:nonzero;"/><path d="M15898.4,28673.4l4572.59,0l-262.329,-6588.71l-4572.71,0l262.45,6588.71Z" style="fill:#bfb9b7;fill-rule:nonzero;"/><path d="M19866.8,28673.4l-4572.76,0l262.467,-6588.71l4572.62,0l-262.329,6588.71Z" style="fill:#f2ebe9;fill-rule:nonzero;"/><path d="M16759.5,26688.5l-49.829,-17.709l433.42,-1215.8l939.825,-248.608l337.867,-1334.55l725.175,-320.138l162.5,-1037.5l52.258,8.159l-166.845,1066.15l-728.121,321.354l-339.254,1339.58l-942.95,249.479l-424.046,1189.58Z" style="fill:#3d8ed1;fill-rule:nonzero;"/><path d="M18214.1,25138.7c49.305,60.242 40.275,149.13 -19.966,198.438c-60.242,49.304 -149.129,40.45 -198.434,-19.967c-49.325,-60.241 -40.454,-149.133 19.946,-198.437c60.263,-49.304 149.15,-40.279 198.454,19.966Z" style="fill:#f5eeec;fill-rule:nonzero;"/><path d="M18032.3,25139.2c-48.975,39.929 -56.25,112.325 -16.146,161.283c39.929,48.959 112.308,56.075 161.283,16.146c48.783,-39.929 56.079,-112.325 16.129,-161.283c-39.912,-48.958 -112.308,-56.079 -161.266,-16.146Zm178.47,218.4c-71.37,58.508 -177.083,47.746 -235.587,-23.608c-58.508,-71.53 -47.917,-177.259 23.608,-235.767c71.529,-58.504 177.242,-47.742 235.767,23.788c58.333,71.354 47.742,177.083 -23.788,235.587Z" style="fill:#3d8ed1;fill-rule:nonzero;"/><path d="M18556.2,23809.7c49.308,60.246 40.454,149.134 -19.967,198.438c-60.241,49.308 -149.129,40.454 -198.437,-19.963c-49.304,-60.245 -40.279,-149.133 19.967,-198.437c60.241,-49.308 149.133,-40.454 198.437,19.962Z" style="fill:#f5eeec;fill-rule:nonzero;"/><path d="M18374.5,23810.2c-48.783,39.933 -56.075,112.329 -16.146,161.288c39.929,48.958 112.325,56.074 161.284,16.145c48.962,-39.933 56.079,-112.329 16.145,-161.287c-39.929,-48.958 -112.325,-56.075 -161.283,-16.146Zm178.646,218.404c-71.529,58.509 -177.258,47.742 -235.767,-23.612c-58.504,-71.525 -47.741,-177.254 23.788,-235.763c71.354,-58.508 177.083,-47.741 235.591,23.613c58.505,71.525 47.742,177.254 -23.612,235.762Z" style="fill:#3d8ed1;fill-rule:nonzero;"/><path d="M19270.3,23480.5c49.309,60.246 40.455,149.133 -19.791,198.437c-60.417,49.308 -149.304,40.279 -198.613,-19.962c-49.304,-60.417 -40.279,-149.134 19.967,-198.438c60.417,-49.308 149.304,-40.454 198.437,19.963Z" style="fill:#f5eeec;fill-rule:nonzero;"/><path d="M17277.8,25399.7c49.309,60.416 40.367,149.304 -19.929,198.608c-60.312,49.133 -149.183,40.279 -198.475,-19.962c-49.304,-60.417 -40.362,-149.309 19.933,-198.438c60.33,-49.308 149.184,-40.454 198.471,19.792Z" style="fill:#f5eeec;fill-rule:nonzero;"/><path d="M17096.1,25400.2c-48.925,40.104 -56.2,112.325 -16.217,161.283c39.984,48.958 112.325,56.25 161.267,16.321c48.925,-40.104 56.183,-112.329 16.2,-161.288c-39.983,-48.958 -112.329,-56.25 -161.25,-16.316Zm178.521,218.4c-71.508,58.508 -177.238,47.916 -235.692,-23.609c-58.437,-71.529 -47.829,-177.258 23.696,-235.591c71.512,-58.509 177.225,-47.917 235.679,23.612c58.454,71.525 47.829,177.254 -23.683,235.588Z" style="fill:#3d8ed1;fill-rule:nonzero;"/><path d="M17432.5,23804.3l-1209.53,0c-55.9,0 -101.233,-45.312 -101.233,-101.391l0,-89.929c0,-55.905 45.333,-101.217 101.233,-101.217l1209.53,0c55.9,0 101.213,45.312 101.213,101.217l0,89.929c0,56.079 -45.313,101.391 -101.213,101.391Z" style="fill:#ded7d5;fill-rule:nonzero;"/><path d="M17432.5,23292.9l-1209.53,0c-55.9,0 -101.233,-45.313 -101.233,-101.217l0,-90.104c0,-55.904 45.333,-101.217 101.233,-101.217l1209.53,0c55.9,0 101.213,45.313 101.213,101.217l0,90.104c0,55.905 -45.313,101.217 -101.213,101.217Z" style="fill:#ded7d5;fill-rule:nonzero;"/><path d="M19088.7,23481.1c-48.962,39.934 -56.25,112.33 -16.32,161.113c40.104,48.958 112.324,56.25 161.283,16.321c48.962,-40.104 56.25,-112.329 16.321,-161.288c-40.104,-48.958 -112.329,-56.25 -161.284,-16.146Zm178.471,218.405c-71.525,58.333 -177.258,47.741 -235.762,-23.784c-58.334,-71.529 -47.746,-177.258 23.783,-235.591c71.525,-58.509 177.258,-47.917 235.592,23.612c58.504,71.525 47.916,177.254 -23.613,235.763Z" style="fill:#3d8ed1;fill-rule:nonzero;"/><path d="M16375.9,27862.8l-31.788,-22.916l557.221,-775.867l719.463,15.625l513.366,-880.033l581.425,-79.167l328.125,-704.862l35.417,16.666l-336.979,724.134l-583.679,79.337l-515.625,883.508l-721.755,-15.625l-545.191,759.2Z" style="fill:#3d8ed1;fill-rule:nonzero;"/><path d="M17727.8,27058.3c22.741,52.95 -1.738,114.409 -54.863,136.98c-52.95,22.741 -114.237,-1.738 -136.979,-54.688c-22.742,-53.125 1.737,-114.408 54.862,-137.154c52.95,-22.742 114.234,1.912 136.98,54.862Z" style="fill:#f5eeec;fill-rule:nonzero;"/><path d="M17598.4,27021.5c-43.054,18.4 -63.021,68.4 -44.617,111.283c18.575,43.054 68.4,63.021 111.458,44.617c43.054,-18.4 63.021,-68.4 44.617,-111.459c-18.575,-42.879 -68.404,-62.845 -111.458,-44.441Zm82.291,191.837c-62.845,26.913 -135.937,-2.254 -162.845,-65.104c-26.913,-62.846 2.254,-135.762 65.104,-162.846c62.845,-26.908 135.937,2.429 162.845,65.104c26.909,62.846 -2.258,135.938 -65.104,162.846Z" style="fill:#3d8ed1;fill-rule:nonzero;"/><path d="M18243.4,26183.2c22.746,52.954 -1.909,114.412 -54.859,136.979c-52.95,22.746 -114.429,-1.733 -137.154,-54.688c-22.587,-53.125 1.913,-114.408 54.863,-137.15c52.95,-22.745 114.408,1.909 137.15,54.859Z" style="fill:#f5eeec;fill-rule:nonzero;"/><path d="M18114.1,26146.3c-43.054,18.405 -63.02,68.229 -44.616,111.284c18.4,43.058 68.4,63.02 111.266,44.62c43.071,-18.404 63.038,-68.404 44.634,-111.458c-18.4,-42.883 -68.421,-63.021 -111.284,-44.446Zm82.117,191.842c-62.846,26.908 -135.762,-2.258 -162.671,-65.104c-26.908,-62.85 2.254,-135.938 65.104,-162.85c62.846,-26.909 135.763,2.258 162.671,65.104c26.913,62.85 -2.254,135.938 -65.104,162.85Z" style="fill:#3d8ed1;fill-rule:nonzero;"/><path d="M18818.8,26095.1c22.742,53.125 -1.908,114.413 -54.858,137.154c-52.954,22.742 -114.413,-1.908 -137.155,-54.862c-22.57,-52.95 1.909,-114.409 54.863,-137.15c52.95,-22.571 114.408,1.908 137.15,54.858Z" style="fill:#f5eeec;fill-rule:nonzero;"/><path d="M17008.5,27052.2c22.73,52.95 -1.82,114.408 -54.808,136.979c-52.983,22.742 -114.358,-1.737 -137.067,-54.687c-22.725,-53.125 1.825,-114.413 54.813,-137.154c53,-22.742 114.371,1.908 137.062,54.862Z" style="fill:#f5eeec;fill-rule:nonzero;"/><path d="M16879.1,27015.5c-42.987,18.405 -62.987,68.405 -44.55,111.288c18.421,43.054 68.388,63.021 111.371,44.616c42.987,-18.404 62.971,-68.404 44.533,-111.458c-18.421,-42.883 -68.371,-62.846 -111.354,-44.446Zm82.237,191.842c-62.829,26.908 -135.85,-2.258 -162.779,-65.104c-26.925,-62.846 2.275,-135.763 65.104,-162.846c62.834,-26.912 135.855,2.429 162.78,65.104c26.929,62.846 -2.275,135.938 -65.105,162.846Z" style="fill:#3d8ed1;fill-rule:nonzero;"/><path d="M18689.4,26058.3c-43.054,18.405 -63.021,68.405 -44.617,111.459c18.404,42.883 68.404,62.845 111.283,44.446c43.054,-18.405 63.021,-68.405 44.621,-111.288c-18.404,-43.054 -68.404,-63.021 -111.287,-44.617Zm82.121,191.842c-62.851,27.083 -135.763,-2.258 -162.676,-65.104c-26.912,-62.675 2.259,-135.767 65.105,-162.675c62.845,-26.909 135.762,2.258 162.675,65.104c26.908,62.846 -2.259,135.762 -65.104,162.675Z" style="fill:#3d8ed1;fill-rule:nonzero;"/><path d="M15416.8,22334.2c0,0 149.046,-46.7 161.058,-135.066c10.208,-75.175 77.658,-164.934 98.371,-192.538c27.708,-36.979 70.467,-182.116 117.462,-147.741c46.98,34.55 -58.958,242.883 -72.445,290.97c-13.492,48.092 190.4,-43.4 240.833,-30.9c50.45,12.671 182.987,358.855 35.796,405.555c-147.184,46.699 -335.242,-0.696 -359.496,12.675c-24.271,13.366 -105.763,38.191 -105.763,38.191l-115.816,-241.146Z" style="fill:#eea886;fill-rule:nonzero;"/><path d="M15925.1,22121.7c0,0 460.125,-112.845 497.083,-94.791c36.963,18.229 41.6,43.579 -0.987,55.904c-42.571,12.325 -441.408,121.875 -441.408,121.875c0,0 567.05,-42.013 600.575,-33.854c19.654,4.862 31.545,53.3 9.358,61.979c-22.188,8.679 -581.808,82.637 -581.808,82.637c0,0 529.516,-38.366 555.504,-23.087c22.725,13.367 22.516,60.417 -16.563,65.971c-39.062,5.554 -528.525,68.925 -528.525,68.925c0,0 387.154,-3.646 401.529,22.221c8.805,15.8 21.042,57.291 -78.904,55.033c-99.933,-2.084 -336.216,17.537 -336.216,17.537l-79.638,-400.35Z" style="fill:#eea886;fill-rule:nonzero;"/><path d="M13231.2,21838.2c0,0 119.496,210.938 279.271,448.088c14.758,21.875 29.791,43.925 45.087,65.975c0,0 0,0.171 0.088,0.346c20.816,29.862 42.012,59.896 63.645,89.929c25.8,35.592 52.134,71.008 78.75,105.558c148.196,192.013 304.167,355.554 422.5,384.721c256.18,63.021 1543.28,-222.396 1543.28,-222.396l-99.48,-506.075c0,0 -451.283,153.646 -752.812,178.817c-184.946,15.454 -415.604,76.217 -442.95,58.854c-27.429,-17.012 -555.296,-778.471 -592.95,-860.588c-37.746,-82.12 -206.496,-404.516 -350.333,-558.508c-143.767,-153.992 -300.188,-95.312 -300.188,-95.312c-431.267,280.729 106.092,910.591 106.092,910.591Z" style="fill:#0064b5;fill-rule:nonzero;"/><path d="M13812.8,30410.4c0,0 199.046,209.029 401.13,252.779c202.083,43.921 343.454,99.65 344.966,219.617c1.525,119.966 -581.546,198.958 -812.812,78.125c-345.142,-180.384 -380.229,-126.042 -418.492,-216.321c-38.279,-90.104 45.954,-331.421 43.471,-360.067c-3.071,-35.417 441.737,25.867 441.737,25.867Z" style="fill:#202338;fill-rule:nonzero;"/><path d="M13790.5,30310.4c0,0 26.288,97.916 22.38,100c-3.905,2.083 -455.384,52.604 -441.738,-25.867c11.079,-63.717 26.879,-132.987 26.879,-132.987l392.479,58.854Z" style="fill:#2f6b8c;fill-rule:nonzero;"/><path d="M13335.1,24429.3c0,0 209.08,1518.75 294.48,2032.29c99.841,600.171 133.679,1096.18 161.525,1406.94c35.016,390.8 81.495,2390.62 106.008,2504.86c24.512,114.238 -609.008,54.863 -609.008,54.863c0,0 -331.859,-2607.12 -436.167,-3023.27c-97.117,-387.5 -379.913,-2061.46 -468.542,-1955.55c-88.625,105.729 -467.55,2015.62 -533.175,2321.35c-65.625,305.554 -432.725,2756.77 -432.725,2756.77c0,0 -392.987,71.179 -631.233,-48.958c0,0 184.775,-2143.93 226.579,-2717.01c15.938,-218.229 54.846,-2617.54 424.096,-3583.68c195.158,-510.588 1898.16,251.391 1898.16,251.391Z" style="fill:#292c47;fill-rule:nonzero;"/><path d="M12721.6,20787c0,0 553.263,114.408 618.904,172.571c71.267,61.979 196.946,667.879 204.446,836.629c7.517,168.925 -66.683,873.958 -137.954,1136.46c-71.267,262.675 -45.396,1554.34 -0.379,1918.06c0,0 -819.775,367.187 -2203.65,34.025c0,0 240.954,-1197.74 197.1,-1557.46c-56.146,-460.937 -166.613,-1592.02 -166.613,-1592.02c0,0 -3.42,-692.013 94.113,-774.65c97.517,-82.467 815.279,-173.613 815.279,-173.613l578.75,0Z" style="fill:#0064b5;fill-rule:nonzero;"/><path d="M11640.1,20927.6c0,0 346.579,95.313 155.904,731.425c-149.342,498.263 -169.512,605.209 -169.512,605.209l-799.725,-199.654c0,0 204.616,-1052.61 587.537,-1143.06c0,0 151.438,-27.604 225.796,6.075Z" style="fill:#0064b5;fill-rule:nonzero;"/><path d="M13510.4,22286.3c14.758,21.875 29.791,43.925 45.087,65.975c0,0 0,0.171 0.088,0.345c20.816,29.863 42.012,59.896 63.646,89.93c16.283,-296.355 -61.563,-707.292 -61.563,-707.292c14.946,137.675 -47.258,551.042 -47.258,551.042Z" style="fill:#00447a;fill-rule:nonzero;"/><rect x="12994.9" y="21829.5" width="339.742" height="518.575" style="fill:#0076d6;"/><path d="M12761.6,20706.4c0,0 -341.995,100.691 -628.487,-17.709l-19.775,140.104c0,0 384.221,145.834 684.462,78.992l-36.2,-201.387Z" style="fill:#0064b5;fill-rule:nonzero;"/><path d="M10800.5,24830.9c0,0 29.204,178.991 53.366,212.671c24.171,33.508 87.296,200.87 93.509,224.479c6.233,23.437 43.246,191.841 49.741,213.021c6.492,21.354 -41.979,53.125 -73.316,7.641c-19.496,-28.475 -51.996,-137.675 -65.471,-172.916c-13.471,-35.246 -54.792,-147.05 -67.342,-127.259c-12.516,19.792 -13.646,168.229 -16.666,206.25c-3.038,38.021 17.983,155.904 28.004,204.688c10.033,48.958 68.991,253.991 42.829,264.237c-26.183,10.242 -47.988,6.771 -79.879,-48.787c0,0 -53.75,28.125 -82.796,-39.584c0,0 -47.813,15.8 -74.754,-72.22c0,0 -33.163,-19.446 -45.334,-51.217c-12.187,-31.596 -81.595,-301.213 -77.95,-410.417c3.646,-109.025 31.338,-184.375 28.767,-261.629c-2.533,-77.083 -37.533,-242.883 -37.533,-242.883l324.825,93.925Z" style="fill:#eea886;fill-rule:nonzero;"/><path d="M10895,25019.8c0,0 -190.8,30.208 -465.071,7.291c0,0 155.28,-1764.41 147.309,-1864.06c-7.379,-92.188 356.2,-1731.42 555.904,-1979.86l303.8,958.855c-23.108,-7.463 -330.658,977.779 -334.913,1079.17c-5.712,135.938 -207.029,1798.61 -207.029,1798.61Z" style="fill:#0064b5;fill-rule:nonzero;"/><path d="M13003.3,19541.2c15.121,-205.554 -0.175,-375.521 -26.858,-480.384c-32.879,-129.337 -242.171,-93.921 -242.171,-93.921l0.038,0.171c-319.204,-95.658 -511.617,-51.733 -632.5,0c-181.009,148.438 -194.775,400.696 -186.529,539.759c3.612,32.987 7.395,66.146 11.091,98.262c0.088,0.696 0.158,1.042 0.158,1.042c16.371,138.196 33.021,258.508 33.021,258.508l57.534,66.321c0,0 -14.792,-230.208 20.608,-243.058c19.029,-6.942 23.579,-53.471 23.7,-94.963c0.225,-35.591 -2.9,-67.537 -2.9,-67.537c369.096,-169.963 783.525,-48.959 792.775,-25.521c5.8,14.758 14.254,59.029 22.521,98.092c5.033,23.783 9.929,45.658 14.096,57.987c10.987,32.638 6.737,240.45 6.737,240.45l71.942,-93.925c0,0 9.15,-44.963 20.975,-112.5c3.854,-21.875 7.967,-46.179 12.15,-72.221c0,0 3.092,-29.341 3.612,-76.562Z" style="fill:#434343;fill-rule:nonzero;"/><path d="M44789.2,21490.3c0,0 -66.492,-173.613 -77.605,-199.829c-10.937,-26.213 -77.083,-69.617 -157.462,-113.021c-80.387,-43.4 -208.508,-66.146 -222.4,-58.679c-13.887,7.466 -31.425,8.508 -49.654,44.445c-18.4,36.109 -14.233,76.563 -14.233,76.563c0,0 -43.4,33.679 -34.375,83.333c0,0 -39.584,33.679 -20.142,88.192c0,0 -37.671,33.854 -20.138,72.396c0,0 66.321,43.75 86.113,67.016c19.962,23.263 164.062,104.859 314.237,161.805c0,0 160.242,5.729 195.659,-222.221Z" style="fill:#eea886;fill-rule:nonzero;"/><path d="M44544.2,21391.8c0,0 -3.471,93.23 8.854,119.963c12.329,26.562 -190.796,81.771 -190.796,81.771c0,0 68.4,-202.775 181.942,-201.734Z" style="fill:#cf8c6c;fill-rule:nonzero;"/><path d="M44593.3,21712.5c0,0 53.296,51.738 60.067,60.592c6.596,8.854 261.808,-152.78 135.592,-282.813c-126.213,-130.037 -195.659,222.221 -195.659,222.221Z" style="fill:#eea886;fill-rule:nonzero;"/><path d="M47555,30472.9l-83.333,-276.388l-374.304,53.817l51.387,248.787l406.25,-26.216Z" style="fill:#3b3f66;fill-rule:nonzero;"/><path d="M45093.8,30493.8l-23.608,150.521l-407.292,-75.175l25.696,-225.171l405.204,149.825Z" style="fill:#555c94;fill-rule:nonzero;"/><path d="M46053.3,26277.8c0,0 246.529,1490.8 300.696,1647.57c55.033,159.725 715.621,2350.7 715.621,2350.7c0,0 432.471,-4.687 452.608,-70.137c0,0 -374.654,-2409.55 -367.187,-2500c7.466,-90.625 -81.425,-2644.62 -81.425,-2644.62c0,0 -989.934,1069.79 -1020.31,1216.5Z" style="fill:#2b2e4a;fill-rule:nonzero;"/><path d="M45505.8,24887.8c0,0 -533.679,2497.75 -578.991,2688.89c-45.313,191.146 -276.042,2755.38 -276.042,2755.38c0,0 105.904,228.821 513.717,150.696c0,0 602.775,-2748.96 651.216,-2840.62c187.5,-355.554 1107.64,-2077.78 1198.09,-2324.3c90.625,-246.529 70.487,-536.458 70.487,-536.458c0,0 -654.337,-382.988 -1578.48,106.42Z" style="fill:#323657;fill-rule:nonzero;"/><path d="M45768.8,21644.8c0,0 -224.133,531.425 -277.779,514.758c-53.646,-16.842 -657.813,-752.258 -657.813,-752.258c0,0 -288.541,347.395 -251.391,388.366c51.737,57.292 758.854,1281.6 859.55,1261.46c100.696,-19.963 561.808,-752.605 561.808,-752.605c0,0 35.242,-558.158 -234.375,-659.72Z" style="fill:#ff9f55;fill-rule:nonzero;"/><path d="M46705,20639.1c0,0 -564.237,415.8 -720.833,581.771c-156.6,166.146 -593.054,858.509 -566.317,1069.62c102.95,809.375 146.525,1498.27 140.446,2048.96c-5.379,479.863 -160.417,599.654 -65.45,608.334c109.2,10.07 1501.22,542.708 1707.47,607.987c0,0 -106.08,-1691.67 -171.525,-1887.85c-65.28,-196.183 259.895,-2233.85 -323.788,-3028.82Z" style="fill:#ff9f55;fill-rule:nonzero;"/><path d="M42920,19879.2c0,0 -56.771,639.237 -56.771,639.237l-56.596,639.234c0,0 686.634,-299.13 1510.59,-226.213l25.004,-281.946l25.175,-283.508c-823.958,-73.088 -1447.4,-486.804 -1447.4,-486.804Z" style="fill:#fff;fill-rule:nonzero;"/><path d="M42806.7,21157.6l-121.529,-10.762l113.366,-1278.47l121.529,10.762l-113.366,1278.47Z" style="fill:#f75a5a;fill-rule:nonzero;"/><path d="M45070,30644.2c0,0 -307.292,-65.104 -318.058,-74.654c-10.588,-9.546 -74.655,-132.463 -122.571,-112.15c-48.088,20.483 -51.388,168.75 -98.433,192.879c-47.05,24.308 -419.446,266.496 -465.455,310.938c-46.004,44.62 -324.304,13.02 -357.637,91.145c-33.509,78.125 -39.409,263.892 377.258,227.434c416.667,-36.459 890.279,39.583 980.729,-7.988c90.275,-47.571 30.554,-507.292 4.167,-627.604Z" style="fill:#202338;fill-rule:nonzero;"/><path d="M47555,30472.9c0,0 -313.887,-15.104 -325.871,-22.917c-11.975,-7.637 -94.962,-118.75 -139.062,-90.971c-44.092,27.775 -23.609,174.65 -66.142,206.075c-42.713,31.596 -371.529,330.209 -409.896,381.425c-38.196,51.388 -318.058,64.754 -338.371,147.221c-20.483,82.292 3.3,266.667 408.855,164.063c405.383,-102.605 885.07,-103.3 966.666,-164.759c81.596,-61.283 -50.867,-505.729 -96.179,-620.137Z" style="fill:#202338;fill-rule:nonzero;"/><path d="M45816.2,25009.4c0,0 -40.279,151.908 -101.217,184.029c-60.766,31.942 274.654,364.409 274.654,364.409c0,0 143.75,-300.175 140.625,-330.73c-3.3,-30.554 -314.062,-217.708 -314.062,-217.708Z" style="fill:#eea987;fill-rule:nonzero;"/><path d="M45579.6,25136.5c0,0 -141.316,643.925 -136.804,842.013c4.513,198.092 751.388,-298.263 717.538,-495.833l-580.734,-346.18Z" style="fill:#323657;fill-rule:nonzero;"/><path d="M46705,20639.1c0,0 -1033.68,1089.76 -968.925,968.055c230.383,-433.855 387.154,-505.034 385.421,-586.63c-1.392,-62.5 -22.571,-245.141 -25.7,-306.25c-5.725,-116.145 -12.671,-210.766 -12.671,-210.766c0,0 515.975,-698.088 489.413,-457.638c-26.392,240.45 132.462,593.229 132.462,593.229Z" style="fill:#eea886;fill-rule:nonzero;"/><path d="M45762.5,19318.2c0,0 -145.137,324.825 -148.438,401.388c-3.474,76.391 14.93,135.591 1.563,223.612c-13.892,90.971 -93.921,281.596 -85.417,334.896c10.242,64.237 145.834,33.333 162.5,139.237c16.842,105.73 111.288,305.9 160.071,310.938c125.346,12.5 609.721,-175.175 642.013,-275.175c32.291,-100 216.496,-657.638 272.571,-763.367c56.074,-105.729 -834.726,-706.079 -919.792,-538.891l-85.071,167.362Z" style="fill:#eea886;fill-rule:nonzero;"/><path d="M46983.3,19582.6c68.75,-276.563 -250,-316.317 -250,-316.317c0,0 -203.475,-245.662 -701.391,-225.696c-497.742,19.792 -433.334,670.313 -433.334,670.313c0,0 344.967,-45.488 493.925,-4.863c0,0 13.367,277.434 -3.991,345.834l187.846,-13.367c0,0 -16.667,-246.354 73.612,-256.425c90.275,-10.067 111.108,522.917 276.733,643.229c0,0 2.259,-37.5 23.963,-74.129c34.546,-57.987 88.191,-155.208 135.237,-269.271c76.046,-159.55 162.329,-357.641 197.4,-499.308Z" style="fill:#543628;fill-rule:nonzero;"/><path d="M46224.2,19839.4c0,0 73.087,-186.459 235.937,-61.804c118.4,90.8 -10.591,405.554 -127.433,401.908c-116.667,-3.646 -160.938,-176.908 -108.504,-340.104Z" style="fill:#eea886;fill-rule:nonzero;"/><path d="M46523.3,20366c0,0 -26.387,99.134 -53.645,122.05c-27.255,22.742 -159.721,124.48 -380.209,189.409l20.484,195.487c0,0 429.166,-156.946 413.37,-506.946Z" style="fill:#c48a6f;fill-rule:nonzero;"/><path d="M44278.8,21628.1c0,0 -74.829,-26.217 -74.829,-26.217l248.612,-719.27l190.104,65.8l-210.762,609.72c-23.442,67.709 -85.242,93.405 -153.125,69.967Z" style="fill:#a53c3b;fill-rule:nonzero;"/><path d="M44353.3,21129.3c0,0 201.042,114.93 186.634,149.65c-14.588,34.725 -40.975,38.542 -40.975,38.542l61.283,84.896c0,0 8.854,78.996 -79.858,65.625c0,0 15.971,72.916 -68.23,49.829c0.001,0 -10.937,52.775 -51.737,48.958c-40.971,-3.821 -167.187,-83.162 -167.187,-83.162c0,0 -24.65,-29.688 14.587,-73.438c0,0 -20.142,-51.212 21.7,-88.191c0,0 -10.592,-45.488 34.896,-85.071c0,0 -13.367,-96.7 67.358,-118.229c0,0 13.196,5.729 21.529,10.591Z" style="fill:#db9c7c;fill-rule:nonzero;"/><path d="M44887.5,20986.5l-725.871,-55.904l52.779,-595.833l723.263,84.725l-50.171,567.012Z" style="fill:#e55353;fill-rule:nonzero;"/><path d="M44705.4,21286.3c0,0 -158.68,-7.292 -247.221,26.737c-19.967,7.638 -37.846,18.75 -38.367,40.279c-0.346,21.525 30.383,49.305 98.958,55.9c68.575,6.771 154.163,46.705 154.163,46.705c0,0 72.575,-13.717 32.467,-169.621Z" style="fill:#eea886;fill-rule:nonzero;"/><path d="M46320.4,24048.6c0,0 267.187,-782.987 267.187,-834.896c0,-51.912 -125.871,-999.308 -125.871,-999.308l365.63,1118.06l-506.946,716.146Z" style="fill:#b36222;fill-rule:nonzero;"/><path d="M46940.8,21303.5c0,0 366.142,1907.64 395.313,2102.78c27.775,184.72 -1205.73,1921.88 -1205.73,1921.88l-395.659,-244.271c0,0 1001.39,-1747.05 1001.39,-1827.6c0,-80.384 -437.154,-1620.83 -437.154,-1620.83c0,0 -188.196,-336.979 159.029,-493.054c347.046,-155.904 482.812,161.108 482.812,161.108Z" style="fill:#ff9f55;fill-rule:nonzero;"/><path d="M23650.3,30674.5c0,0 93.58,174.479 154.517,243.575c61.113,69.271 294.963,193.058 296.179,398.438c1.392,222.916 -394.096,161.112 -548.783,152.954c-154.692,-8.163 -166.496,-127.259 -231.6,-253.475c-65.104,-126.042 -130.729,-104.688 -142.879,-206.596c-12.329,-101.738 63.021,-334.896 63.021,-334.896l409.545,0Z" style="fill:#202338;fill-rule:nonzero;"/><path d="M21307.8,24733.2c0,0 435.592,-1015.45 488.192,-1265.28c23.617,-113.196 89.063,-394.792 130.383,-626.042c13.717,-76.042 25.175,-154.517 35.071,-231.25l0,-0.35c38.717,-306.771 48.613,-586.458 48.613,-586.458c0,0 231.421,-793.054 -264.238,-841.492c0,0 -176.737,61.283 -182.637,75.175c-83.509,194.963 -116.321,692.188 -119.271,799.825c-2.433,87.325 -130.558,968.925 -132.467,1000.18c-3.646,60.588 -135.416,378.296 -206.25,614.063c-154.166,513.366 -235.416,918.4 -235.416,918.4l438.02,143.229Z" style="fill:#0064b5;fill-rule:nonzero;"/><rect x="20060.8" y="22971.3" width="2234.72" height="1954.69" style="fill:#5f8be3;"/><rect x="20720.8" y="23978.5" width="124.304" height="601.217" style="fill:#aab1e0;"/><rect x="20547.9" y="24136.5" width="124.479" height="443.229" style="fill:#aab1e0;"/><rect x="20376.2" y="23903.5" width="124.304" height="676.213" style="fill:#aab1e0;"/><path d="M20574.3,24805.2c0,0 12.845,263.367 154.516,309.03c141.492,45.658 295.659,4.858 360.938,-35.071c65.104,-39.929 229.167,-155.904 168.054,-228.821c-196.7,-234.025 -683.508,-45.138 -683.508,-45.138Z" style="fill:#eea886;fill-rule:nonzero;"/><path d="M20646.5,25049c0,0 -176.909,12.846 -167.363,-62.154c9.55,-75 136.804,-45.833 136.804,-45.833l30.559,107.987Z" style="fill:#eea886;fill-rule:nonzero;"/><rect x="21261.3" y="24122" width="124.479" height="457.637" style="fill:#aab1e0;"/><rect x="21084.2" y="24075.9" width="124.479" height="503.817" style="fill:#aab1e0;"/><rect x="20904.9" y="24171.7" width="124.479" height="407.987" style="fill:#aab1e0;"/><rect x="21444.5" y="24171.7" width="124.304" height="407.987" style="fill:#aab1e0;"/><path d="M22007.1,23870.3c-1.037,1.738 -2.083,3.471 -3.296,5.034l4.858,3.3l133.334,89.929l3.3,-5.033l-133.158,-89.759l-5.038,-3.471Z" style="fill:#aab1e0;fill-rule:nonzero;"/><path d="M21526.4,23896c0.342,1.908 0.692,3.992 0.692,6.075l6.079,-0.867l381.596,-45.312l5.9,-0.696c-0.346,-1.908 -0.521,-3.992 -0.692,-5.904l-5.904,0.696l-381.596,45.312l-6.075,0.696Z" style="fill:#aab1e0;fill-rule:nonzero;"/><path d="M21151.6,23610.6c0,0 4.513,4.167 4.513,4.167l283.162,256.596l4.513,3.991c1.217,-1.562 2.604,-2.95 3.992,-4.337l-4.338,-4.167l-283.338,-256.6l-4.337,-4.166c-1.217,1.737 -2.604,3.125 -4.167,4.516Z" style="fill:#aab1e0;fill-rule:nonzero;"/><path d="M20689.1,23574l0,6.075l383.334,0c-0.175,-1.041 -0.175,-2.083 -0.175,-2.95c0,-1.041 0,-2.083 0.175,-3.125l-383.334,0Z" style="fill:#aab1e0;fill-rule:nonzero;"/><path d="M20358.8,23272.6l245.488,267.709l4.167,4.337c1.387,-1.387 2.775,-2.775 4.512,-3.991l-4.167,-4.513l-245.483,-267.708l-4.517,4.166Z" style="fill:#aab1e0;fill-rule:nonzero;"/><path d="M21920,23849.3c0,0 0,-2.605 0,-2.605c0,-25.866 21.009,-46.699 46.7,-46.699c25.867,0 46.875,20.833 46.875,46.699c0,8.684 -2.429,16.667 -6.425,23.613c-1.037,1.738 -2.083,3.471 -3.296,5.033c-8.679,11.113 -22.05,18.229 -37.154,18.229c-22.916,0 -42.012,-16.491 -46.008,-38.366c-0.346,-1.908 -0.521,-3.992 -0.692,-5.904Zm-6.079,-2.605c0,1.042 0,2.259 0.175,3.301c0,2.083 0.346,3.991 0.696,5.904c4.338,24.825 26.042,43.75 51.908,43.75c17.188,0 32.467,-8.334 42.013,-21.009c1.217,-1.562 2.433,-3.125 3.475,-4.862c4.687,-7.983 7.462,-17.188 7.462,-27.084c0,-29.166 -23.783,-52.774 -52.95,-52.774c-29.166,0 -52.779,23.608 -52.779,52.774Z" style="fill:#aab1e0;fill-rule:nonzero;"/><path d="M21433.5,23904.5c0,-10.938 3.821,-21.179 10.246,-29.167c1.217,-1.562 2.604,-2.95 3.992,-4.337c8.508,-8.163 19.966,-13.196 32.641,-13.196c22.917,0 42.013,16.492 46.009,38.196c0.341,1.908 0.691,3.992 0.691,6.075c0,0.866 0.175,1.562 0.175,2.429c0,25.871 -21.008,46.875 -46.875,46.875c-25.871,0 -46.879,-21.004 -46.879,-46.875Zm-5.9,0c0,29.167 23.613,52.954 52.779,52.954c29.163,0 52.779,-23.787 52.779,-52.954l0,-3.296c-0.175,-1.912 -0.35,-3.996 -0.695,-5.904c-4.517,-24.654 -26.042,-43.575 -52.084,-43.575c-14.412,0 -27.433,5.729 -36.979,15.104c-1.562,1.563 -2.779,2.95 -4.167,4.513c-7.291,9.029 -11.633,20.658 -11.633,33.158Z" style="fill:#aab1e0;fill-rule:nonzero;"/><path d="M21072.4,23580c-0.175,-1.042 -0.175,-2.084 -0.175,-2.95c0,-1.042 0,-2.084 0.175,-3.125c1.562,-24.304 21.875,-43.75 46.7,-43.75c25.866,0 46.704,21.008 46.704,46.875c0,10.937 -3.65,21.008 -10.071,28.991c-1.217,1.738 -2.604,3.125 -4.167,4.517c-8.333,8.158 -19.791,13.192 -32.466,13.192c-24.825,0 -45.138,-19.271 -46.7,-43.75Zm-6.075,-6.075l0,6.075c1.562,27.779 24.65,49.829 52.775,49.829c14.412,0 27.433,-5.729 36.979,-15.104c1.392,-1.563 2.779,-2.954 3.992,-4.517c7.466,-9.025 11.808,-20.658 11.808,-33.158c0,-29.167 -23.613,-52.95 -52.779,-52.95c-28.125,0 -51.213,22.22 -52.775,49.825Z" style="fill:#aab1e0;fill-rule:nonzero;"/><path d="M20595.5,23577.1c0,-12.675 4.858,-23.958 13.021,-32.466c1.387,-1.388 2.775,-2.775 4.512,-3.992c7.988,-6.596 18.23,-10.417 29.342,-10.417c24.654,0 45.138,19.446 46.7,43.75l0,6.075c-1.563,24.48 -22.046,43.75 -46.7,43.75c-25.871,0 -46.875,-21.004 -46.875,-46.7Zm-6.079,0c0,28.992 23.783,52.78 52.954,52.78c27.95,0 51.038,-22.05 52.604,-49.83c0.171,-1.041 0.171,-2.083 0.171,-2.95c0,-1.041 0,-2.083 -0.171,-3.125c-1.566,-27.604 -24.654,-49.825 -52.604,-49.825c-12.85,0 -24.479,4.513 -33.508,11.98c-1.563,1.387 -2.95,2.604 -4.513,4.166c-9.204,9.375 -14.933,22.396 -14.933,36.804Z" style="fill:#aab1e0;fill-rule:nonzero;"/><path d="M24836.6,24770.5c0,0 76.908,134.025 168.054,131.25c77.429,-2.258 180.9,47.567 212.846,62.846c42.708,20.312 197.05,37.675 171.879,87.846c-25.175,50 -255.558,-17.359 -306.6,-22.396c-51.042,-5.209 81.771,173.612 79.342,223.437c-2.609,49.829 -323.613,230.729 -400,98.438c-76.392,-132.117 -66.496,-318.054 -84.721,-338.888c-18.233,-20.833 -59.55,-94.271 -59.55,-94.271l218.75,-148.262Z" style="fill:#eea886;fill-rule:nonzero;"/><path d="M25151.9,25218.9c0,0 205.558,418.4 194.791,456.421c-10.937,37.85 -35.241,46.354 -56.25,7.987c-21.004,-38.542 -210.937,-399.304 -210.937,-399.304c0,0 155.904,531.075 154.517,564.233c-1.042,19.446 -47.225,38.371 -60.417,18.75c-13.196,-19.616 -199.479,-538.712 -199.479,-538.712c0,0 144.616,496.179 134.546,523.262c-8.855,23.613 -56.25,30.904 -69.792,-5.208c-13.367,-36.283 -175,-490.45 -175,-490.45c0,0 81.25,366.667 58.162,384.375c-14.066,10.937 -53.3,29.167 -71.008,-65.975c-17.883,-95.138 -85.071,-316.146 -85.071,-316.146l385.938,-139.233Z" style="fill:#eea886;fill-rule:nonzero;"/><path d="M21295.5,30654.2c0,0 -190.625,212.845 -384.029,257.466c-193.575,44.617 -328.992,101.563 -330.384,223.609c-1.562,122.05 556.946,202.604 778.301,79.516c330.554,-183.854 364.237,-128.3 400.866,-220.312c36.633,-91.842 -44.096,-337.329 -41.667,-366.667c2.955,-36.112 -423.087,26.388 -423.087,26.388Z" style="fill:#202338;fill-rule:nonzero;"/><path d="M21317,30552.4c0,0 -25.171,99.654 -21.525,101.737c3.817,2.259 436.108,53.646 423.088,-26.387c-10.588,-64.759 -25.692,-135.417 -25.692,-135.417l-375.871,60.067Z" style="fill:#81807e;fill-rule:nonzero;"/><path d="M23246.2,30607.3c0,0 -18.225,95.137 -14.584,97.396c3.475,2.258 438.371,79.862 435.938,0.866c-1.908,-62.671 -40.104,-135.762 -40.104,-135.762l-381.25,37.5Z" style="fill:#81807e;fill-rule:nonzero;"/><path d="M21710.1,24583.8c0,0 -157.295,1526.91 -239.062,2049.66c-95.488,611.283 -127.954,1116.32 -154.692,1432.64c-33.504,397.917 -39.929,2355.21 -63.362,2471.53c-23.613,116.317 520.833,32.117 520.833,32.117c0,0 267.704,-2557.47 367.533,-2981.25c93.055,-394.446 438.192,-2093.23 523.088,-1985.59c84.896,107.813 190.108,1982.47 252.954,2293.75c62.846,311.113 253.992,2747.4 253.992,2747.4c0,0 433.333,86.288 548.437,-11.283c0,0 52.604,-2099.48 12.5,-2682.99c-15.279,-222.396 260.417,-2665.97 -93.054,-3649.83c-186.979,-519.791 -1929.17,283.854 -1929.17,283.854Z" style="fill:#292c47;fill-rule:nonzero;"/><path d="M24779,24798.8c0,0 -118.229,136.458 -229.337,116.146c-111.113,-20.313 -575.696,-1436.98 -580.038,-1720.48c-3.296,-229.862 -129.167,-836.979 -129.167,-836.979c0,0 0,0.346 -0.175,1.042c-0.171,0.17 -0.171,0.52 -0.171,0.691c0,0.35 -0.17,0.696 -0.17,1.042c-12.505,45.487 -182.292,675.35 -188.196,978.125c-6.25,314.063 18.75,1394.79 18.75,1394.79l-420.663,112.675l-1343.92,12.5l-306.77,-125.175c0,0 33.504,-347.396 46.004,-591.492c7.812,-155.208 37.846,-432.988 30.208,-703.471c0,0 4.863,-285.071 -23.437,-407.987c-3.125,-542.013 -35.938,-1078.82 -35.938,-1078.82c-18.229,-245.834 -30.725,-475.521 -38.021,-689.929c59.204,-31.425 130.559,-68.054 187.675,-95.138c176.388,-84.204 422.396,-197.396 580.209,-269.791c92.533,-42.363 182.987,-73.438 182.987,-73.438c0,0 630.729,-60.417 681.942,-57.292c16.146,1.042 94.967,28.471 198.437,67.879c223.788,84.896 654.863,257.813 723.613,307.121c100.867,72.046 313.717,1785.59 323.266,1905.38c17.359,216.145 322.913,1752.6 322.913,1752.6Z" style="fill:#dbd8e3;fill-rule:nonzero;"/><path d="M21639.6,24618.4c0,0 923.263,78.646 1731.77,0l0,265.275c0,0 -1203.99,115.104 -1772.22,-50.521l40.45,-214.754Z" style="fill:#1d2033;fill-rule:nonzero;"/><path d="M21563.2,21257.5c7.117,217.88 17.709,451.734 36.109,702.084c0,0 17.537,611.283 52.779,1191.15c11.979,82.983 18.054,167.879 11.287,254.858c-8.854,113.371 -21.183,237.154 -35.941,366.321c-0.171,1.737 -0.346,3.471 -0.521,4.862c-3.471,30.729 -7.292,61.459 -10.938,92.709c0,0.52 -0.175,0.866 -0.175,1.387c-78.466,646.008 -211.454,1387.15 -280.725,1611.28c-14.758,46.875 35.763,90.105 71.875,123.438l252.429,159.204c0,0 104.167,-958.333 138.713,-1283.51c33.338,-314.063 138.371,-734.896 184.204,-1145.14l0,-0.175c58.333,-520.312 138.542,-1030.03 181.946,-1332.99c112.671,-788.367 262.846,-1141.32 262.846,-1141.32c-71.875,21.525 -863.888,395.833 -863.888,395.833Z" style="fill:#0064b5;fill-rule:nonzero;"/><path d="M23950.3,23207.3c19.621,263.196 500.871,1799.13 564.759,1792.36c112.325,-11.808 489.929,-130.558 489.929,-130.558c0,0 -464.929,-1561.63 -481.421,-1726.21c-11.808,-119.791 -202.604,-1916.32 -303.3,-1988.54c-57.988,-41.667 -488.887,-194.446 -700.346,-277.78c-38.716,-15.279 -166.146,-63.195 -200.696,-76.387c-44.966,50 -358.508,389.408 -467.708,1678.47c-18.404,217.187 39.758,677.258 78.471,1052.78c41.496,400.521 87.329,713.192 120.833,1048.09c66.321,660.07 112.675,1185.25 112.675,1185.25l656.771,-292.362c106.25,-53.3 253.471,-271.529 213.542,-383.334c-151.909,-425.345 -343.054,-1152.08 -343.23,-1525.17c0,0 73.267,-913.887 131.25,-1114.75c0,0 103.646,423.784 128.471,758.159Z" style="fill:#0064b5;fill-rule:nonzero;"/><path d="M22820.1,19162.5c0,0 -658.504,-243.575 -617.358,631.425c41.146,875.171 195.483,964.063 628.816,841.838c433.163,-122.221 469.446,-674.48 525.871,-940.105c56.421,-265.795 -321.875,-494.962 -537.329,-533.158Z" style="fill:#eea886;fill-rule:nonzero;"/><path d="M23266,20129.7c0,0 1.738,-233.855 -95.312,-255.384c-97.221,-21.525 -147.396,113.717 -147.396,113.717l-78.296,-4.342c0,0 69.963,-236.804 -22.746,-291.146c-92.708,-54.337 -647.045,-6.595 -716.666,-86.283c-69.617,-79.862 31.425,-553.471 182.641,-600c151.213,-46.529 564.409,-140.8 826.909,92.883c0,0 228.125,4.338 237.325,190.275c9.204,185.767 -107.463,713.542 -186.459,840.28Z" style="fill:#434343;fill-rule:nonzero;"/><path d="M23060.6,19775c28.992,-77.083 193.23,-67.362 176.388,55.033c-16.842,122.225 -152.429,310.417 -206.946,275.175c-54.512,-35.416 -9.546,-223.783 30.558,-330.208Z" style="fill:#eea886;fill-rule:nonzero;"/><path d="M23152.4,20833c0,0 -57.984,-47.917 25.35,-486.112c22.391,-117.188 -618.229,139.929 -618.229,139.929c0,0 5.208,96.183 4.512,192.537c-0.171,43.054 -1.563,86.283 -5.208,120.833c-2.605,26.042 -17.884,71.875 -23.438,84.546c-28.992,66.842 380.379,117.709 617.013,-51.733Z" style="fill:#eea987;fill-rule:nonzero;"/><path d="M22558.8,20800.2c384.55,-4.863 508.159,-297.225 511.805,-306.25c-202.605,205.208 -506.596,185.416 -506.596,185.416c-0.171,43.054 -1.563,86.284 -5.209,120.834Z" style="fill:#a77860;fill-rule:nonzero;"/><path d="M22713.7,21059.9l-116.666,156.595c0,0 68.4,91.496 189.583,23.959l-72.917,-180.554Z" style="fill:#292c47;fill-rule:nonzero;"/><path d="M22630.4,21222.8c0,0 -432.292,1664.58 -343.229,2960.25l145.483,256.421l136.113,-268.575c0,0 37.325,-2317.71 155.9,-2952.26l-94.267,4.167Z" style="fill:#292c47;fill-rule:nonzero;"/><path d="M22588.9,20913.9l124.829,146.008c0,0 200.171,-38.887 259.025,-143.404c58.854,-104.687 -383.854,-2.604 -383.854,-2.604Z" style="fill:#eea987;fill-rule:nonzero;"/><path d="M22560.2,20786.1c0,0 14.413,111.283 153.475,273.783l-151.737,203.646l-82.117,-422.571l80.379,-54.858Z" style="fill:#c4c1cc;fill-rule:nonzero;"/><path d="M23133.8,20672.2c0,0 -217.708,307.642 -420.137,387.675l94.096,232.988l430.383,-520.313l-104.342,-100.35Z" style="fill:#c4c1cc;fill-rule:nonzero;"/><path d="M2851.56,11005.4c-0.001,0 -202.259,-371.317 -317.325,-504.929c-115.055,-133.63 -497.363,-233.855 -445.401,-404.584c51.963,-170.75 564.167,-96.496 705.225,70.521c141.042,167.029 571.596,226.425 586.442,296.925c14.842,70.538 -149.517,456.529 -241.771,519.638c-92.275,63.108 -287.171,22.429 -287.171,22.429Z" style="fill:#6a75ba;fill-rule:nonzero;"/><path d="M1991.79,11319.8c0,0 -329.48,-261.233 -488.159,-338.191c-158.662,-76.946 -549.325,-17.1 -569.429,-194.429c-20.104,-177.342 479.463,-312.605 675.246,-215.33c195.762,97.292 614.512,-19.183 656.146,39.655c41.629,58.82 44.062,478.35 -15.559,572.916c-59.633,94.55 -258.245,135.379 -258.245,135.379Z" style="fill:#545d94;fill-rule:nonzero;"/><path d="M2723.54,12000c0,0 143.821,-983.679 137.325,-1154.34c-1.854,-48.712 296.008,-30.62 282.083,63.109c-30.292,204.062 107.171,994.741 83.283,1139.48c-23.887,144.758 -514.95,42.9 -502.691,-48.246Z" style="fill:#eea886;fill-rule:nonzero;"/><path d="M2272.81,12282.7c0,0 -269.534,-955.137 -332.325,-1113.96c-27.955,-70.692 246.7,-180.192 283.937,-54.096c58.438,197.846 493.371,870.379 528.925,1012.73c35.558,142.325 -455.571,243.854 -480.537,155.329Z" style="fill:#eea886;fill-rule:nonzero;"/><path d="M2460,12946.5c0,0 -289.496,-976.162 -334.046,-1080.1l456.529,-282.083c0,0 211.579,623.575 241.267,779.446c29.688,155.9 -363.75,582.741 -363.75,582.741Z" style="fill:#207cd6;fill-rule:nonzero;"/><path d="M10541.2,10367.3c0,0 -440.867,111.454 -650.625,444.842c-209.737,333.404 -391.025,717.396 -785.175,891.596c-394.15,174.204 -396.683,623.075 -365.987,692.312c30.674,69.217 1241.51,1430.29 1505.71,1482.88c264.183,52.604 758.854,16.041 705.921,-333.696c-52.921,-349.742 -571.304,-1102.07 -280.334,-1481.58c290.975,-379.534 364.309,-729.167 364.309,-729.167l-493.821,-967.188Z" style="fill:#2e334d;fill-rule:nonzero;"/><path d="M10464.4,11995.1c0,0 -12.95,-4.27 -34.496,-6.25c-25.016,-2.345 -61.596,-1.633 -103.092,12.359c-10.345,3.475 -24.149,10.504 -40.345,20.054c-104.775,61.737 -352.675,229.304 -386.18,233.296c-38.7,4.62 -6.025,-573.696 -6.025,-573.696c0,0 132.013,-233.508 148.609,-387.204c16.6,-153.717 421.529,701.441 421.529,701.441Z" style="fill:#eea886;fill-rule:nonzero;"/><path d="M7363.12,12599.5c0,0 -484.375,-339.637 -1052.26,-233.837c-567.896,105.783 -629.129,371.266 -824.009,383.262c-194.862,12.013 -846.25,-43.646 -1380.73,112.242c-534.479,155.883 -985.466,172.583 -1046.7,128.054c-61.25,-44.55 334.042,-935.346 334.042,-1057.83l-662.533,-172.604c0,0 -189.321,790.571 -263.525,968.766c-79.375,190.555 -231.996,549.321 -14.842,861.096c217.117,311.788 823.975,171.284 1191.44,234.113c367.462,62.829 2012.17,22.533 2299.39,7.154c311.788,-16.704 1252.69,-61.25 1252.69,-61.25l167.029,-1169.17Z" style="fill:#207cd6;fill-rule:nonzero;"/><path d="M11341.4,10839.2c0,0 30.904,478.504 -75.346,622.012c-42.483,57.396 -71.371,88.646 -90.696,105.488c-27.254,23.712 -48.383,53.646 -60.521,87.675c-32.829,92.05 -53.037,221.579 -79.166,249.233c-28.504,30.158 -111.163,-46.563 -141.075,-46.717c-29.929,-0.175 -321.388,251.388 -391.075,199.896c-69.688,-51.512 -494.95,-482.987 -459.204,-778.821c35.729,-295.816 166.216,-737.516 645,-734.808c478.787,2.708 615.454,177.05 652.083,296.042Z" style="fill:#eea886;fill-rule:nonzero;"/><path d="M9894.54,13122.8c-9.184,19.633 -185.242,300.746 -378.104,463.871c-80.055,67.758 -162.955,115.137 -238.059,115.137c-22.933,0 -45.258,0.333 -67.029,0.888c-221.321,5.954 -391.337,39.879 -690.158,54.791c-310.379,15.467 -1063.4,-27.846 -1085.66,-27.846c-22.275,0 -239.408,38.975 -239.408,38.975c-77.937,-94.637 128.054,-1163.61 167.029,-1169.17c38.975,-5.575 289.513,89.062 528.909,50.104c239.408,-38.975 334.062,-61.25 690.379,-478.821c356.32,-417.55 712.641,-523.333 862.97,-489.95c150.313,33.421 449.13,0 449.13,0c0,0 12.971,1414.17 0,1442.02Z" style="fill:#ffc955;fill-rule:nonzero;"/><path d="M11140.2,11181.8c0,0 89.221,231.2 136.492,263.041c0,0 172.204,-182.104 61.6,-631.479c-110.592,-449.391 -527.725,-491.666 -797.05,-446.021c-335.242,56.805 -672.742,1191.06 -655.329,1301.53c17.412,110.488 393.004,-586.195 722.1,-530.12c329.096,56.075 331.737,74.412 532.187,43.054Z" style="fill:#2e334d;fill-rule:nonzero;"/><path d="M10429.9,11988.8c-25.017,-2.345 -61.596,-1.633 -103.092,12.359c-10.346,3.475 -24.15,10.504 -40.346,20.054c-76.996,-120.05 -148.3,-404.758 -150.679,-414.396c51.337,155.871 294.117,381.983 294.117,381.983Z" style="fill:#a77860;fill-rule:nonzero;"/><path d="M9516.42,13586.7c-80.055,67.758 -162.954,115.137 -238.059,115.137c-22.933,0 -45.258,0.334 -67.029,0.888l91.129,-886.129l213.959,770.104Z" style="fill:#c29941;fill-rule:nonzero;"/><path d="M11248.8,15112.6l-213.713,194.396c-184.375,-98.788 -646.408,-431.304 -735.296,-507.033c-93.229,-79.409 -714.845,-599.325 -800.175,-717.85c-86.146,-118.521 -195.175,-1343.26 -184.095,-1399.38c11.041,-55.33 540.45,-83.746 600.504,45.816c0,0 27.637,698.508 41.875,815.454c13.437,116.946 58.229,222.571 138.416,320.938c110.975,136.146 347.346,452.292 576.146,707.862c54.55,60.921 505.783,479.013 576.338,539.792Z" style="fill:#eea886;fill-rule:nonzero;"/><path d="M9959.46,12744.2c0,0 33.4,-930.138 -269.1,-918.646c-382.462,14.567 -439.825,482.533 -387.862,991.025c0,0 571.596,5.575 656.962,-72.379Z" style="fill:#ffc955;fill-rule:nonzero;"/><path d="M11145.8,15021.6c0,0 28.488,44.792 69.704,58.734c71.18,24.046 176.496,-22.259 228.455,71.004c51.962,93.283 -198.817,326.271 -266.163,340.4c-67.341,14.133 -175.312,-90.692 -259.671,-297.533c-84.391,-206.842 227.675,-172.605 227.675,-172.605Z" style="fill:#eea886;fill-rule:nonzero;"/><path d="M11421.9,15122.2c0,0 127.912,97.342 257.271,222.392c113.475,109.687 228.874,253.666 199.775,280.833c-39.775,37.154 -117.188,-86.475 -236.925,-188.054c-110.246,-93.508 -103.996,-57.413 -103.996,-57.413c0,0 -1.196,-10.362 99.358,113.888c108.108,133.579 219.808,292.187 186.496,315.087c-20.921,14.375 -21.896,18.213 -69.083,-24.254c21.929,29.967 16.825,39.846 5.158,49.621c-60.329,50.554 -249.792,-122.362 -325,-191.079c57.446,53.129 93.975,97.971 35.658,104.829c-66.737,7.863 -323.662,-248.196 -424.425,-331.479c-109.933,-90.867 375.713,-294.371 375.713,-294.371Z" style="fill:#eea886;fill-rule:nonzero;"/><path d="M7580.79,12642c0,0 -102.121,731.979 -51.792,1092.08c0,0 53.246,39.55 159.183,7.571c0,0 26.463,-799.063 85.8,-1082.71c0,0 -32.604,-24.67 -193.191,-16.941Z" style="fill:#e0e0e0;fill-rule:nonzero;"/><rect x="7605" y="0" width="79.008" height="13195.6" style="fill:#e0e0e0;"/><rect x="36056.9" y="25565.3" width="1978.67" height="117.533" style="fill:#e2d2ca;"/><rect x="37597" y="25988.5" width="173.438" height="5341.67" style="fill:#706865;"/><rect x="34991.3" y="25532" width="1375.35" height="167.883" style="fill:#ccbdb7;"/><rect x="35418.6" y="24100.9" width="520.837" height="1581.95" style="fill:#ccbdb7;"/><rect x="31125" y="25684.7" width="7620.5" height="303.821" style="fill:#b59074;"/><path d="M40208,23846.3c0,0 83.333,1168.92 -145.137,1308.68c-143.059,87.675 -713.371,383.333 -696.53,438.716c17.013,55.384 322.05,493.054 322.05,493.054c0,0 1095.65,-721.525 1131.07,-948.783c34.55,-222.221 -53.987,-1711.46 -204.512,-1780.03c-112.846,-51.392 -172.396,-8.854 -314.579,96.7c-199.48,148.091 -92.363,391.666 -92.363,391.666Z" style="fill:#323657;fill-rule:nonzero;"/><path d="M38211.1,24180.2l-96.704,-35.762c0,0 120.487,-282.813 173.091,-275.871c60.592,7.988 136.109,27.954 136.109,27.954l-212.496,283.679Z" style="fill:#ead8cf;fill-rule:nonzero;"/><path d="M38189.1,24228.8c12.325,-9.204 205.209,-379.166 205.209,-379.166l412.154,55.9l-222.746,438.371l-394.617,-115.105Z" style="fill:#da9b5b;fill-rule:nonzero;"/><path d="M38859.9,30600.9c0,0 34.029,236.458 38.366,272.05c4.167,35.417 378.996,-21.008 378.996,-21.008l30.384,-281.596c0,0 -400.871,-2.779 -447.746,30.554Z" style="fill:#424773;fill-rule:nonzero;"/><path d="M38894.2,30842.7c0,0 -118.75,142.534 -233.679,204.688c-114.758,62.154 -295.313,86.633 -363.196,151.042c-48.958,46.354 -178.475,246.179 298.438,242.187c476.912,-3.992 706.945,28.125 757.987,-48.438c51.213,-76.562 -73.787,-565.45 -73.787,-565.45c-0.001,0 -113.021,40.625 -385.763,15.971Z" style="fill:#292c47;fill-rule:nonzero;"/><path d="M36458.8,30603.1c0,0 34.03,236.458 38.367,272.05c4.167,35.417 378.996,-21.008 378.996,-21.008l30.383,-281.596c0,0 -400.871,-2.779 -447.746,30.554Z" style="fill:#424773;fill-rule:nonzero;"/><path d="M36493.2,30845c0,0 -118.767,142.534 -233.679,204.688c-114.759,62.15 -537.325,113.192 -605.4,177.429c-48.942,46.354 -130.538,233.158 540.641,215.8c476.909,-12.5 706.946,28.125 757.988,-48.437c51.212,-76.563 -73.958,-565.455 -73.958,-565.455c0,0 -106.425,43.405 -385.592,15.975Z" style="fill:#292c47;fill-rule:nonzero;"/><path d="M40068.6,26515.6c0,0 -1362.5,230.554 -1670.14,278.992c-307.813,48.266 -1976.39,463.541 -2184.91,589.933c-166.129,100.692 86.979,2519.44 146.2,3442.19l657.288,0l47.571,-2768.06c788.716,19.792 1351.39,-184.546 1925.69,-97.221c574.305,87.155 1053.12,211.113 1418.06,-278.3c0,0 13.541,-1060.59 -339.759,-1167.53Z" style="fill:#292c47;fill-rule:nonzero;"/><path d="M38725.7,30829l640.45,-39.583l62.5,-2730.73c339.409,8.508 455.905,-13.021 730.555,-46.355l517.187,-1201.91c-453.296,90.45 -1905.21,456.771 -2098.78,574.133c-166.146,100.692 88.887,2521.7 148.091,3444.44Z" style="fill:#292c47;fill-rule:nonzero;"/><path d="M39441.5,21408.5c0,0 -499.479,-138.021 -690.104,249.825c-190.454,387.675 -104.167,1122.74 147.566,1191.84c251.738,69.095 613.713,-10.417 718.23,-251.738c104.512,-241.321 187.845,-584.2 162.85,-806.425c-25.005,-222.046 -205.904,-330.379 -338.542,-383.504Z" style="fill:#eea886;fill-rule:nonzero;"/><path d="M39029.5,22772.8c0,0 5.55,294.967 -27.088,357.813c-32.466,62.85 695.488,47.05 695.488,47.05c0,0 -114.758,-354.167 -49.654,-655.73c64.408,-298.612 -618.746,250.867 -618.746,250.867Z" style="fill:#eea886;fill-rule:nonzero;"/><path d="M39687.5,22410.2c0,0 -38.887,79.167 -227.258,66.321c-188.538,-12.846 -436.979,-240.104 -517.013,-260.417c-80.033,-20.312 -84.721,-65.8 -84.721,-65.8l-42.362,75.175l-81.942,12.5c0,0 55.729,-227.779 -65.625,-307.987c-121.529,-80.379 54.509,-726.388 669.096,-570.659c0,0 468.925,85.938 475.171,347.742c6.254,261.979 -34.2,564.413 -125.346,703.125Z" style="fill:#3a3f47;fill-rule:nonzero;"/><path d="M38964.2,23122.9c0,0 2.083,-120.138 56.425,-131.596c54.512,-11.458 572.221,-82.642 639.058,-56.425l28.65,158.508c0,0 -128.65,79.338 -724.133,29.513Z" style="fill:#e2d2ca;fill-rule:nonzero;"/><path d="M38814.4,22096.5c13.891,-98.438 125.871,-211.459 189.929,-58.163c64.067,153.475 -43.229,376.738 -115.1,364.759c-71.879,-11.98 -93.75,-172.917 -74.829,-306.596Z" style="fill:#eea886;fill-rule:nonzero;"/><path d="M36795.3,24542l0.867,0c-3.646,1.563 -4.167,1.738 -0.867,0Z" style="fill:#323657;fill-rule:nonzero;"/><path d="M39587.2,21478.8c0,0 608.854,-28.645 106.25,922.046l-106.25,-922.046Z" style="fill:#3a3f47;fill-rule:nonzero;"/><path d="M40943.9,31153l-45.313,127.434l-1914.06,-593.059l91.666,-258.158l1867.71,723.783Z" style="fill:#918783;fill-rule:nonzero;"/><rect x="38918.9" y="28515.5" width="217.533" height="2081.07" style="fill:#918783;"/><rect x="38386.1" y="28404.9" width="1283.16" height="122.571" style="fill:#5e5854;"/><path d="M37094.6,31153l45.313,127.434l1914.06,-593.059l-84.2,-274.304l-1875.17,739.929Z" style="fill:#918783;fill-rule:nonzero;"/><path d="M38443.2,31266.7l0,148.262l610.763,-727.604l-84.2,-274.304l-526.563,853.646Z" style="fill:#918783;fill-rule:nonzero;"/><path d="M36915.6,31330.2c0,98.784 80.208,178.821 178.992,178.821c98.787,0 178.821,-80.037 178.821,-178.821c-0.001,-98.783 -80.034,-178.991 -178.821,-178.991c-98.784,0 -178.992,80.208 -178.992,178.991Z" style="fill:#bfb2ac;fill-rule:nonzero;"/><path d="M38428,31330.2c0,98.784 80.213,178.821 178.996,178.821c98.784,0 178.821,-80.037 178.821,-178.821c0,-98.783 -80.038,-178.991 -178.821,-178.991c-98.783,0 -178.996,80.208 -178.996,178.991Z" style="fill:#bfb2ac;fill-rule:nonzero;"/><path d="M40765.1,31330.2c0,98.784 80.034,178.821 178.821,178.821c98.784,0 178.992,-80.037 178.992,-178.821c0,-98.783 -80.208,-178.991 -178.992,-178.991c-98.787,0 -178.821,80.208 -178.821,178.991Z" style="fill:#bfb2ac;fill-rule:nonzero;"/><path d="M37728.7,28404.9l2581.25,0c126.733,0 229.341,-102.604 229.341,-229.342l0,-5.904c0,-126.562 -102.608,-229.167 -229.341,-229.167l-2581.25,0c-126.734,0 -229.342,102.605 -229.342,229.167l0,5.904c0,126.738 102.608,229.342 229.342,229.342Z" style="fill:#e2d2ca;fill-rule:nonzero;"/><rect x="32100" y="25988.5" width="173.438" height="5341.67" style="fill:#706865;"/><path d="M33659,24862.8l4039.75,0c126.391,0 228.821,-102.429 228.821,-228.645l0,-2715.11c0,-126.387 -102.43,-228.816 -228.821,-228.816l-4039.75,0c-126.392,0 -228.821,102.429 -228.821,228.816l0,2715.11c0,126.216 102.429,228.645 228.821,228.645Z" style="fill:#f2e2d9;fill-rule:nonzero;"/><rect x="33606.4" y="21861.8" width="4144.97" height="2503.82" style="fill:#f5f7ff;"/><path d="M35533.8,24566c0,80.209 64.93,145.142 145.142,145.142c80.033,0 144.963,-64.933 144.963,-145.142c0,-80.033 -64.93,-144.962 -144.963,-144.962c-80.212,0 -145.142,64.929 -145.142,144.962Z" style="fill:#918681;fill-rule:nonzero;"/><path d="M34747.9,25688.7l0,-56.425c0,0 79.341,-351.041 640.8,-351.041c561.458,0 550,407.466 550,407.466l-1190.8,0Z" style="fill:#e2d2ca;fill-rule:nonzero;"/><path d="M35945.5,25333.3c0,0 -121.879,-9.375 -166.492,-36.458c-44.796,-26.908 -312.154,-206.771 -374.829,-177.95c-62.846,28.817 -480.729,156.771 -466.317,217.879c14.58,61.113 53.296,55.209 82.638,44.446c29.513,-10.762 332.983,-74.479 359.721,-63.717c0,0 -297.917,108.684 -299.129,188.021c-1.217,79.342 62.325,98.613 90.621,128.646c28.3,30.038 62.154,104.517 138.891,110.246c76.909,5.729 451.717,-124.654 528.821,-130.558c77.254,-6.075 219.963,4.687 229.688,-7.813c9.7,-12.671 -123.613,-272.742 -123.613,-272.742Z" style="fill:#eea886;fill-rule:nonzero;"/><path d="M38166,23289.4c388.888,-68.23 798.263,-166.492 798.263,-166.492l724.133,-29.512c0,0 664.754,146.354 926.558,264.583c24.83,11.283 25.005,593.054 93.059,745.483l-217.017,457.988c0,0 -125.346,906.946 -151.387,1310.24c-11.979,185.246 33.679,1789.76 33.679,1789.76c0,0 -64.929,32.116 -559.2,86.633c-494.271,54.338 -1729.34,-19.792 -1737.15,-78.125c-7.813,-58.508 239.237,-2173.96 250.175,-2283.51c16.666,-168.054 -48.609,-944.967 -48.609,-944.967c-93.233,125 -330.558,689.933 -578.129,958.683c-145.487,158.159 -866.321,255.209 -1002.08,259.721c-295.838,9.896 -835.421,68.75 -851.217,39.929c-12.5,-17.187 -46.875,-478.816 -13.02,-490.104c29.512,-9.896 1031.42,-67.533 1288.02,-203.817c93.921,-49.829 374.654,-661.979 374.654,-661.979c0,0 454.684,-958.162 669.271,-1054.52Z" style="fill:#323657;fill-rule:nonzero;"/><path d="M39593.2,27615.1l1215.98,0c243.054,0 440.1,-197.22 440.1,-440.279l0,-2022.92c0,-243.229 -197.046,-440.275 -440.1,-440.275l-1215.98,0c-243.054,0 -440.279,197.046 -440.279,440.275l0,2022.92c0,243.058 197.225,440.279 440.279,440.279Z" style="fill:#e2d2ca;fill-rule:nonzero;"/><path d="M39524.5,28289.2c309.025,0 559.725,-103.821 745.138,-308.508c419.095,-462.675 343.754,-1276.04 340.45,-1310.42c-6.421,-64.062 -63.713,-110.937 -127.6,-104.512c-64.063,6.25 -110.942,63.366 -104.688,127.429c1.042,9.375 67.704,746.529 -281.425,1131.42c-141.321,155.729 -328.3,231.421 -571.875,231.421c-64.412,0 -116.667,52.083 -116.667,116.495c0,64.409 52.255,116.667 116.667,116.667Z" style="fill:#e2d2ca;fill-rule:nonzero;"/><path d="M36276.2,22193.6l1148.61,0c18.058,0 32.816,-14.754 32.816,-32.812l0,-66.838c0,-18.058 -14.758,-32.812 -32.816,-32.812l-1148.61,0c-18.229,0 -32.812,14.754 -32.812,32.812l0,66.838c0,18.058 14.583,32.812 32.812,32.812Z" style="fill:#dfe1e8;fill-rule:nonzero;"/><path d="M36276.2,22477.2l1148.61,0c18.058,0 32.816,-14.758 32.816,-32.813l0,-66.666c0,-18.058 -14.758,-32.813 -32.816,-32.813l-1148.61,0c-18.229,0 -32.812,14.754 -32.812,32.813l0,66.666c0,18.055 14.583,32.813 32.812,32.813Z" style="fill:#dfe1e8;fill-rule:nonzero;"/><path d="M36353.7,24166.3l993.75,0c60.762,0 110.246,-49.479 110.246,-110.245l0,-1275.35c0,-60.938 -49.484,-110.417 -110.246,-110.417l-993.75,0c-60.938,0 -110.242,49.479 -110.242,110.417l0,1275.35c0,60.766 49.304,110.245 110.242,110.245Z" style="fill:#dfe1e8;fill-rule:nonzero;"/><path d="M34010.6,24166.3l1813.19,0c96.354,0 174.479,-78.125 174.479,-174.654l0,-1755.9c0,-96.354 -78.125,-174.65 -174.479,-174.65l-1813.19,0c-96.354,0 -174.479,78.296 -174.479,174.65l0,1755.9c0,96.529 78.125,174.654 174.479,174.654Z" style="fill:#dfe1e8;fill-rule:nonzero;"/></g><defs><linearGradient id="_Linear1" x1="0" y1="0" x2="1" y2="0" gradientUnits="userSpaceOnUse" gradientTransform="matrix(8337.54,0,0,8337.54,35457.3,20176.2)"><stop offset="0" style="stop-color:#ff9e54;stop-opacity:1"/><stop offset="1" style="stop-color:#ffd154;stop-opacity:1"/></linearGradient><linearGradient id="_Linear2" x1="0" y1="0" x2="1" y2="0" gradientUnits="userSpaceOnUse" gradientTransform="matrix(3822.29,0,0,3822.29,41159.7,25814.3)"><stop offset="0" style="stop-color:#ff9e54;stop-opacity:1"/><stop offset="1" style="stop-color:#ffd154;stop-opacity:1"/></linearGradient><linearGradient id="_Linear3" x1="0" y1="0" x2="1" y2="0" gradientUnits="userSpaceOnUse" gradientTransform="matrix(4131.22,0,0,4131.22,7819.25,3792.5)"><stop offset="0" style="stop-color:#ff9e54;stop-opacity:1"/><stop offset="1" style="stop-color:#ffd154;stop-opacity:1"/></linearGradient><linearGradient id="_Linear4" x1="0" y1="0" x2="1" y2="0" gradientUnits="userSpaceOnUse" gradientTransform="matrix(6588.73,0,0,6588.73,40350.7,8384.68)"><stop offset="0" style="stop-color:#ff9e54;stop-opacity:1"/><stop offset="1" style="stop-color:#ffd154;stop-opacity:1"/></linearGradient><linearGradient id="_Linear5" x1="0" y1="0" x2="1" y2="0" gradientUnits="userSpaceOnUse" gradientTransform="matrix(1893.92,0,0,1893.92,10644.8,6586.04)"><stop offset="0" style="stop-color:#ff9e54;stop-opacity:1"/><stop offset="1" style="stop-color:#ffd154;stop-opacity:1"/></linearGradient><linearGradient id="_Linear6" x1="0" y1="0" x2="1" y2="0" gradientUnits="userSpaceOnUse" gradientTransform="matrix(268.597,0,0,268.597,15686.9,19505.2)"><stop offset="0" style="stop-color:#ff9e54;stop-opacity:1"/><stop offset="1" style="stop-color:#ffd154;stop-opacity:1"/></linearGradient><linearGradient id="_Linear7" x1="0" y1="0" x2="1" y2="0" gradientUnits="userSpaceOnUse" gradientTransform="matrix(268.606,0,0,268.606,27475,19505.2)"><stop offset="0" style="stop-color:#ff9e54;stop-opacity:1"/><stop offset="1" style="stop-color:#ffd154;stop-opacity:1"/></linearGradient><linearGradient id="_Linear8" x1="0" y1="0" x2="1" y2="0" gradientUnits="userSpaceOnUse" gradientTransform="matrix(7866.96,0,0,7866.96,17567.9,9236.38)"><stop offset="0" style="stop-color:#ff9e54;stop-opacity:1"/><stop offset="1" style="stop-color:#ffd154;stop-opacity:1"/></linearGradient></defs></svg>