<?xml version="1.0" encoding="UTF-8" standalone="no"?><!DOCTYPE svg PUBLIC "-//W3C//DTD SVG 1.1//EN" "http://www.w3.org/Graphics/SVG/1.1/DTD/svg11.dtd"><svg width="100%" height="100%" viewBox="0 0 185050 130051" version="1.1" xmlns="http://www.w3.org/2000/svg" xmlns:xlink="http://www.w3.org/1999/xlink" xml:space="preserve" xmlns:serif="http://www.serif.com/" style="fill-rule:evenodd;clip-rule:evenodd;stroke-linejoin:round;stroke-miterlimit:2;"><path d="M3939.01,39153.8c0,0 12257.8,-5267.88 16992,1871.75c4734.25,7139.54 -1898.08,6694.96 -1898.08,6694.96c0,0 -368.421,3300.85 -6629.33,-4511.12c-2951.1,-3682.07 -8464.62,-4055.55 -8464.62,-4055.55l-0.008,-0.033Z" style="fill:#bbd070;fill-rule:nonzero;"/><path d="M1801.09,18801.6c0,0 10881.1,-3374.7 18045.1,10427c7164.08,13801.7 13604.8,14892.8 13604.8,14892.8c0,-0.004 -24610.6,4415.96 -31649.8,-25319.8l-0.054,0.054l0.012,-0.013Z" style="fill:#97a43c;fill-rule:nonzero;"/><path d="M28926.1,44918c-952.829,4588.62 -11456,-4259.62 -12490.3,-12194.5c-1034.29,-7934.75 1025.33,-13756.7 -1062.57,-18846.7c0,0 18245,8445.42 13552.9,31041.2l0.029,0Z" style="fill:#48753a;fill-rule:nonzero;"/><path d="M31767.8,21932.8c-432.934,0 -847.155,63.734 -1228.66,180.488c-503.108,-1220.56 -1753.04,-2084.93 -3215.71,-2084.93c-1625.64,0 -2988.93,1068.14 -3355.04,2506.37c-280.883,-106.125 -586.804,-164.791 -907.621,-164.791c-1353.23,0.004 -2450.45,1042.76 -2450.45,2329.2l14609.6,0c0,-1527.69 -1545.51,-2766.34 -3452.12,-2766.34l0.017,0Z" style="fill:#ebebeb;fill-rule:nonzero;"/><path d="M10120.3,31134.6c-330.071,0 -645.904,48.68 -936.842,137.655c-383.679,-930.713 -1336.67,-1589.78 -2451.96,-1589.78c-1239.58,0 -2279.1,814.533 -2558.32,1911.1c-214.116,-80.866 -447.412,-125.641 -691.979,-125.641c-1031.91,0 -1868.49,795.137 -1868.49,1776.04l11139.8,0c0,-1164.86 -1178.46,-2109.38 -2632.24,-2109.38l-0.004,0Z" style="fill:#ebebeb;fill-rule:nonzero;"/><path d="M150070,116873l-132090,0c-3347.52,0 -6061.12,-2714.11 -6061.12,-6061.21l0,-73471.2c0,-3347.43 2713.61,-6061.12 6061.12,-6061.12l132090,0c3347.08,0 6061.21,2713.68 6061.21,6061.12l0,73471.2c0,3347.08 -2714.12,6061.21 -6061.21,6061.21Z" style="fill:#005ca6;fill-rule:nonzero;"/><path d="M35094.9,14128.1c-3049.39,0 -5521.46,-2472 -5521.46,-5521.46c0,-3049.41 2472.08,-5521.5 5521.46,-5521.5c3049.48,0.004 5521.5,2472.09 5521.5,5521.5c0,3049.48 -2472.01,5521.46 -5521.5,5521.46Zm7185.83,-7383.17c-174.704,-676.354 -442.708,-1314.95 -788.854,-1902.05l803.179,-1207.9l-1114.31,-1114.22l-1114.22,-1114.22l-1207.83,803.158c-587.171,-346.196 -1225.83,-614.287 -1902.05,-788.992l-285.954,-1420.71l-3151.55,0l-285.954,1420.71c-676.288,174.705 -1314.95,442.796 -1902.05,788.992l-1207.83,-803.158l-1114.29,1114.22l-1114.22,1114.22l803.229,1207.9c-346.212,587.1 -614.287,1225.7 -788.991,1902.05l-1420.78,285.955l0,3151.47l1420.78,285.954c174.704,676.283 442.779,1314.97 788.991,1902.05l-803.229,1207.83l1114.22,1114.24l1114.29,1114.22l1207.83,-803.108c587.1,346.216 1225.76,614.237 1902.05,788.925l285.954,1420.87l3151.55,0l285.954,-1420.87c676.216,-174.688 1314.88,-442.709 1902.05,-788.925l1207.83,803.108l1114.22,-1114.22l1114.31,-1114.24l-803.179,-1207.83c346.146,-587.084 614.15,-1225.77 788.854,-1902.05l1420.85,-285.954l0,-3151.47l-1420.85,-285.955Z" style="fill:url(#_Linear1);"/><path d="M42207,22777.8c-1398,0 -2531.32,-1133.25 -2531.32,-2531.32c0,-1398 1133.31,-2531.32 2531.32,-2531.32c1397.94,0 2531.25,1133.32 2531.25,2531.32c0,1398.07 -1133.31,2531.32 -2531.25,2531.32Zm3294.27,-3384.76c-80.084,-310.05 -202.984,-602.866 -361.613,-872.05l368.196,-553.729l-510.854,-510.783l-510.779,-510.779l-553.821,368.125c-269.096,-158.717 -561.842,-281.546 -871.963,-361.688l-131.075,-651.337l-1444.79,0l-131.092,651.337c-310.037,80.142 -602.779,202.971 -872.033,361.688l-553.663,-368.125l-510.85,510.779l-510.783,510.783l368.196,553.729c-158.788,269.188 -281.617,562 -361.684,872.05l-651.337,131.075l0,1444.81l651.337,131.075c80.067,310.017 202.896,602.779 361.684,871.941l-368.196,553.755l1021.63,1021.63l553.663,-368.196c269.254,158.7 561.996,281.6 872.033,361.687l131.092,651.338l1444.79,0l131.075,-651.338c310.121,-80.087 602.867,-202.987 871.963,-361.687l553.821,368.196l510.779,-510.85l510.85,-510.779l-368.192,-553.75c158.629,-269.167 281.525,-561.93 361.613,-871.946l651.408,-131.075l0,-1444.81l-651.408,-131.075Z" style="fill:url(#_Linear2);"/><path d="M6385.47,60430.9l-2080.57,-1813.8c-170.658,-148.8 -188.366,-407.691 -39.654,-578.279c148.734,-170.575 407.621,-188.3 578.284,-39.638l1471.27,1282.69l2098.18,-2340.19c151.113,-168.558 410.229,-182.654 578.771,-31.612c168.471,151.108 182.583,410.225 31.542,578.696l-2637.81,2942.14Z" style="fill:#ffd179;fill-rule:nonzero;"/><path d="M101412,25951l2693.85,0l-824.637,-1709.98l-2693.89,0l824.671,1709.98Z" style="fill:#ffdc7d;fill-rule:nonzero;"/><path d="M100152,25951l641.633,0l-824.654,-1709.98l-641.65,0l824.671,1709.98Z" style="fill:#ffdc7d;fill-rule:nonzero;"/><path d="M90845.7,23914.6l10906.4,0l-361.683,-855.033l-10906.4,0l361.7,855.033Z" style="fill:#ffdc7d;fill-rule:nonzero;"/><path d="M2973.8,45689.3l3510.85,0l-1074.58,-2228.73l-3510.78,0l1074.51,2228.73Z" style="fill:#ffd179;fill-rule:nonzero;"/><path d="M1331.09,45689.3l836.579,0l-1074.65,-2228.73l-836.512,0l1074.58,2228.73Z" style="fill:#ffd179;fill-rule:nonzero;"/><rect x="36320.3" y="56471.8" width="17793.6" height="17793.4" style="fill:#4ba2f4;"/><rect x="17174.4" y="37313" width="17793.6" height="17793.6" style="fill:#f0f0f0;"/><rect x="66414.5" y="56387.2" width="17793.8" height="17793.9" style="fill:#f0f0f0;"/><rect x="85559.9" y="56387.2" width="17793.8" height="17793.9" style="fill:#4ba2f4;"/><rect x="36320.3" y="75533.4" width="17793.6" height="17793.8" style="fill:#f0f0f0;"/><rect x="36320.3" y="94679.7" width="17793.6" height="17793.8" style="fill:#ffdf69;"/><rect x="66414.5" y="94679.7" width="17793.8" height="17793.8" style="fill:#f0f0f0;"/><rect x="17174.4" y="75575.9" width="17793.6" height="17793.8" style="fill:#f0f0f0;"/><path d="M103353,94679.7c0,0 -12.308,8236.42 -1943,15218.5l-4115.31,2575.24l-14508.8,0c2756.79,-7335.08 2773.42,-17793.8 2773.42,-17793.8l17793.8,0l-0.037,0.055l0.016,-0.005Z" style="fill:#ffdf69;fill-rule:nonzero;"/><path d="M97294.9,112473l0,-2634.55l4115.31,0l-4115.31,2634.55Z" style="fill:#deba35;fill-rule:nonzero;"/><path d="M84206.6,75533.4c0,0 -12.308,8236.38 -1943,15217.7l-4114.58,2575.95l-14508.8,0c2756.8,-7335.79 2773.44,-17793.8 2773.44,-17793.8l17793,0l-0.088,0.071l0.025,0.016Z" style="fill:#4ba2f4;fill-rule:nonzero;"/><path d="M78149.1,93326.8l0,-2635.26l4114.58,0l-4114.58,2635.26Z" style="fill:#375eab;fill-rule:nonzero;"/><rect x="85559.9" y="37325.9" width="17793.8" height="17793.6" style="fill:#f0f0f0;"/><path d="M84206.6,37325.9c0,0 -12.308,8236.33 -1943,15218.1l-4114.58,2575.51l-14508.8,0c2756.8,-7335.5 2773.44,-17793.6 2773.44,-17793.6l17793,0l-0.088,-0.037l0.025,-0.009Z" style="fill:#ffdf69;fill-rule:nonzero;"/><path d="M78149.1,55119.3l0,-2635.19l4114.58,0l-4114.58,2635.19Z" style="fill:#deba35;fill-rule:nonzero;"/><path d="M34967.4,94679.7c0,0 -12.517,8236.42 -1943.14,15218.5l-4114.95,2575.24l-14508.7,0c2756.51,-7335.08 2773.07,-17793.8 2773.07,-17793.8l17793.8,0l-0.05,0.055l-0.012,-0.005Z" style="fill:#f0f0f0;fill-rule:nonzero;"/><path d="M28909.3,112473l0,-2634.55l4114.95,0l-4114.95,2634.55Z" style="fill:#c9c9c9;fill-rule:nonzero;"/><rect x="114540" y="56471.8" width="17793.8" height="17793.4" style="fill:#ffdf69;"/><rect x="114540" y="37313" width="17793.8" height="17793.6" style="fill:#f0f0f0;"/><rect x="133686" y="37313" width="17793" height="17793.6" style="fill:#f0f0f0;"/><rect x="133686" y="75533.4" width="17793" height="17793.8" style="fill:#f0f0f0;"/><rect x="133686" y="94679.7" width="17793" height="17793.8" style="fill:#ffdf69;"/><rect x="114540" y="75575.9" width="17793.8" height="17793.8" style="fill:#f0f0f0;"/><path d="M132332,94679.7c0,0 -12.309,8236.42 -1943.01,15218.5l-4115.31,2575.24l-14508.8,0c2756.79,-7335.08 2773.44,-17793.8 2773.44,-17793.8l17793.8,0l-0.054,0.055l0.017,-0.005Z" style="fill:#f0f0f0;fill-rule:nonzero;"/><path d="M126274,112473l0,-2634.55l4115.31,0l-4115.31,2634.55Z" style="fill:#c9c9c9;fill-rule:nonzero;"/><path d="M103353,75533.4c0,0 -12.308,8236.38 -1943,15217.7l-4115.31,2575.95l-14508.8,0c2756.79,-7335.79 2773.42,-17793.8 2773.42,-17793.8l17793.8,0l-0.037,0.071l0.016,0.016Z" style="fill:#f0f0f0;fill-rule:nonzero;"/><path d="M97294.9,93326.8l0,-2635.26l4115.31,0l-4115.31,2635.26Z" style="fill:#c9c9c9;fill-rule:nonzero;"/><rect x="163206" y="76918.4" width="8018.67" height="562.796" style="fill:#ffd887;"/><rect x="163206" y="77978.4" width="8018.67" height="2363.28" style="fill:#ffd887;"/><rect x="63030.8" y="25472.9" width="4342.67" height="324.221" style="fill:#ffdc7d;"/><rect x="63030.8" y="25938.9" width="4342.67" height="878.037" style="fill:#ffdc7d;"/><rect x="172542" y="73888.9" width="353.75" height="6621.83" style="fill:#ffd989;"/><rect x="59269.9" y="27633.7" width="1119.15" height="91957.5" style="fill:url(#_Linear3);"/><rect x="108387" y="27633.7" width="1119.06" height="91957.5" style="fill:url(#_Linear4);"/><rect x="67107.4" y="29550" width="32779.2" height="3478.66" style="fill:url(#_Linear5);"/><path d="M119154,18323.8l-2807.43,-1220.05c-230.033,-100.054 -335.641,-367.85 -235.812,-597.934c100.554,-230.262 368.191,-335.729 598.229,-235.766l1984.95,862.85l1433.75,-3177.15c103.437,-228.805 372.533,-330.659 601.129,-227.363c228.575,103.229 330.571,372.396 227.133,601.217l-1801.94,3994.2Z" style="fill:#ffdc7d;fill-rule:nonzero;"/><path d="M116219,12283.9c-2219.34,1559.17 -2756.08,4632.96 -1196.48,6851.92c1558.89,2218.96 4632.5,2755.64 6851.88,1196.46c2218.59,-1559.24 2755.35,-4633 1196.46,-6852c-1559.6,-2218.89 -4633.25,-2755.64 -6851.83,-1196.39l-0.025,0.012Zm6126.29,8719.12c-2588.27,1819.01 -6174.79,1192.85 -7994.08,-1395.9c-1818.58,-2588.77 -1192.85,-6174.83 1396.12,-7993.96c2588.98,-1819.15 6174.79,-1192.92 7994.08,1395.83c1819.31,2588.84 1192.87,6174.83 -1396.11,7994l-0.017,0.029Z" style="fill:#ffdc7d;fill-rule:nonzero;"/><path d="M177884,117237c0,0 384.116,-581.596 447.033,-923.767c62.95,-341.421 255.362,-536.733 255.362,-536.733c0,0 1455.45,-211.234 2014.62,-730.629c559.167,-519.371 1744.06,-1933.59 2303.96,-1509.68c559.183,423.904 -405.817,2207.03 -976.563,2745.95c-570.746,538.904 -1344.03,1482.92 -2046.44,1413.47c-701.683,-70.154 -1657.99,-403.646 -1997.97,-458.612Z" style="fill:#cfbfb8;fill-rule:nonzero;"/><path d="M177884,117148l702.395,-1371.53c0,0 -3360.81,-615.605 -4343.17,-1207.33c-246.667,-148.3 -491.892,-297.308 -719.759,-438.366c-519.391,-320.454 -949.791,-597.521 -1101.7,-726.267c-484.67,-413.058 -2429.85,-1791.1 -2955.73,-2296.74c-525.175,-506.371 -1145.83,-197.484 -1964.7,-189.534c-819.583,8.684 -3786.89,830.454 -4674.5,948.354c-887.587,117.188 -4092.88,713.263 -4092.88,713.263c564.237,1542.24 19150,4568.12 19150,4568.12l0.033,0l0.013,0.017Z" style="fill:#25354d;fill-rule:nonzero;"/><path d="M158546,112530c0,0 1808.45,260.417 2273.6,295.85c475.971,36.18 3169.11,253.196 4467.58,377.605c1298.47,124.425 3849.83,49.912 4356.21,272.725c505.642,222.795 3430.99,1213.82 4388,1522.71c957.746,309.6 7178.08,1448.21 7178.08,1448.21c0,0 107.05,842.725 -443.42,1490.15c0,0 -2742.34,-245.225 -4189.12,-32.55c-1447.48,212.67 -3974.97,-111.409 -5508.54,-807.292c-1534.29,-695.888 -3965.58,-60.767 -5324.79,416.667c-1359.22,477.429 -6554.54,860.816 -7202.67,715.416c-648.871,-145.4 -1941.56,-769.671 -2878.33,-1788.2c-936.771,-1018.51 2883.38,-3911.3 2883.38,-3911.3l0.025,0Z" style="fill:#2f4563;fill-rule:nonzero;"/><path d="M180766,117937c0,0 231.475,-658.279 209.775,-1004.77c-21.721,-347.22 83.904,-512.879 83.904,-512.879c0,0 1394.67,-627.171 1812.07,-1265.9c417.396,-639.479 1224.69,-2298.18 1869.93,-2022.57c645.258,276.321 140.346,2240.3 -282.85,2900.75c-423.887,661.162 -685.762,2419.7 -1383.82,2521.7c-698.77,101.996 -1966.86,-645.975 -2309.01,-616.321Z" style="fill:#eddad3;fill-rule:nonzero;"/><path d="M154481,111372c0,0 -2285.88,5187.38 1262.29,6444.58c2829.86,1003.32 8046.88,79.567 8046.88,79.567l-3209.63,-5057.17l-6099.54,-1467.02l0.008,0.034Z" style="fill:#2f4563;fill-rule:nonzero;"/><path d="M160364,91798.4c-870.225,193.855 -351.579,2378.47 -934.6,5434.04c-583.766,3054.83 -2424.78,3532.25 -2424.78,3532.25c0,0 817.413,-1354.9 728.438,-2771.27c-70.175,-1106.77 -1410.59,-4126.16 -85.363,-6099.54c1023.58,-1524.9 2827.71,-140.35 2827.71,-140.35l-111.409,44.862Z" style="fill:#323657;fill-rule:nonzero;"/><path d="M159055,98159.3l1692,1741.89c15.904,-319.741 133.091,-708.908 253.908,-1033.72c58.575,-158.421 119.338,-302.363 167.813,-413.038c63.662,-146.129 109.216,-237.275 109.216,-237.275l-1509.67,-1596.49l-713.262,1538.62Z" style="fill:#eea886;fill-rule:nonzero;"/><path d="M161069,99729.7c0,0 65.088,837.675 520.834,1610.24c456.458,772.571 1210.21,2055.12 1103.14,2889.19c-106.337,834.041 -461.508,1136.42 -781.979,1437.34c-320.45,300.208 -1200.07,2466.74 -1307.13,3300.78c-106.338,834.063 -173.613,2566.56 28.941,3840.43c0,0 -5934.62,688.646 -6531.42,-347.954c0,0 736.408,-3334.06 1084.36,-4169.58c347.221,-835.504 1074.22,-5834.04 1385.99,-6684.04c311.77,-849.967 1047.47,-1671.72 1497.39,-2261.28c401.48,-525.887 1133.54,-1506.08 1133.54,-1506.08l1866.32,1890.92l0.008,0.033Z" style="fill:#ffb555;fill-rule:nonzero;"/><path d="M161811,91976.4c783.421,52.083 2465.28,643.075 2492.76,2737.99c0,0 -126.579,549.045 -311.77,970.783c-185.905,421.717 57.154,1756.35 -52.084,1807.73c-109.966,52.083 -541.804,84.633 -541.804,84.633c0,0 -617.05,1355.61 -1109.67,1286.16c-493.333,-68.713 -2319.88,-671.3 -2999.13,-2525.31c-679.254,-1854.03 -640.904,-4573.21 2521.7,-4362l0,0.021Z" style="fill:#eea886;fill-rule:nonzero;"/><path d="M164303,94714.3c0,0 -1363.58,716.145 -2638.16,745.087c-1275.33,28.925 -2319.88,2073.2 -2319.88,2073.2c0,0 -1543.68,-3463.54 223.525,-5220.62c1762.87,-1752.03 5285.75,29.654 4734.5,2402.34l0.013,0Z" style="fill:#323657;fill-rule:nonzero;"/><path d="M161367,95447.2c21.7,-243.766 -206.875,-639.458 -643.071,-353.729c-436.2,285.746 -34.725,1503.19 304.546,1427.24c339.254,-75.242 316.842,-821.771 338.525,-1073.51Z" style="fill:#eea886;fill-rule:nonzero;"/><path d="M159958,97485.5c23.892,39.791 644.55,1056.85 1042.42,1381.65c58.575,-158.417 119.337,-302.359 167.808,-413.038c0.004,0 -886.871,-528.8 -1210.23,-968.608Z" style="fill:#a77860;fill-rule:nonzero;"/><path d="M172597,114505l-8292.83,-1565.4l136.72,-721.925l8292.83,1565.38l-136.721,721.945Z" style="fill:#c4c4c4;fill-rule:nonzero;"/><path d="M177372,107545l-4772.12,6960.33l-606.179,-415.208l4772.83,-6960.38l605.471,415.225l0,0.025Z" style="fill:#c4c4c4;fill-rule:nonzero;"/><path d="M171012,113458c41.25,-184.463 0,-491.892 -580.142,-802.95c-580.883,-310.334 -1834.5,-1017.8 -2275.03,-1034.43c-440.538,-17.359 -1308.59,52.083 -1487.28,51.354c-177.95,-0.729 279.237,1048.91 279.237,1048.91l4063.21,737.117Z" style="fill:#eea886;fill-rule:nonzero;"/><path d="M166873,111752c0,0 -2419.69,-951.962 -2812.5,-1141.5c-392.792,-189.53 -2225.12,-805.85 -2387.15,-887.584c-162.763,-81.025 -928.804,-4654.96 -996.079,-5806.58c-68.021,-1151.63 -136.004,-3590.14 -1435.92,-3481.63c-1300.65,108.508 -1612.42,962.099 -1449.65,2641.79c162.758,1679.69 1124.13,7694.58 1530.66,7897.83c406.546,203.284 5071.62,1246.39 7531.83,1737.57c2353.89,469.463 18.8,-959.929 18.8,-959.929l0.008,0.033Z" style="fill:#eea886;fill-rule:nonzero;"/><path d="M160810,104275c0,0 -1874.27,349.392 -2955,458.609c0,0 -1344.05,-3830.29 486.113,-4442.25c2169.41,-724.829 2654.08,2243.21 2468.89,3983.66l0,-0.021Z" style="fill:#eddad3;fill-rule:nonzero;"/><path d="M129291,87500.1c0,0 -554.117,-219.896 -593.18,-569.287c-33.991,-297.313 -280.658,-666.234 -356.612,-779.813c-101.288,-151.908 -252.467,-732.067 -430.417,-608.367c-177.225,123.696 206.163,967.171 253.904,1158.85c47.742,192.43 -708.195,-217.012 -897.708,-180.12c-188.8,36.891 -704.583,1362.85 -156.979,1582.76c546.875,219.183 1252.17,79.567 1341.88,138.162c89.687,57.88 392.779,175.78 392.779,175.78l446.338,-917.967Z" style="fill:#eea886;fill-rule:nonzero;"/><path d="M143678,122912c0,0 384.846,711.808 636.583,993.925c251.734,282.829 1215.28,787.762 1220.35,1626.88c5.779,910.729 -1623.99,657.55 -2261.29,624.271c-637.309,-33.263 -685.763,-519.375 -954.13,-1034.43c-268.47,-515.05 -538.283,-428.245 -588.837,-843.454c-49.913,-415.954 259.687,-1367.19 259.687,-1367.19l1687.64,0Z" style="fill:#202338;fill-rule:nonzero;"/><path d="M133977,122829c0,0 -784.863,868.783 -1582.03,1051.08c-797.171,182.292 -1354.9,414.5 -1361.4,912.9c-5.783,498.404 2294.57,827.554 3206.73,324.792c1362.14,-750.867 1500.3,-524.446 1651.48,-899.15c150.467,-375.434 -181.563,-1378.04 -171.442,-1497.4c11.579,-147.567 -1743.33,107.779 -1743.33,107.779Z" style="fill:#202338;fill-rule:nonzero;"/><path d="M134066,122413c0,0 -103.438,407.254 -88.246,415.938c15.904,8.679 1796.88,219.183 1743.33,-107.78c-44.116,-264.758 -106.337,-552.675 -106.337,-552.675l-1548.75,244.517Z" style="fill:#81807e;fill-rule:nonzero;"/><path d="M142013,122637c0,0 -74.513,388.458 -60.05,397.866c14.479,9.409 1806.28,326.25 1795.43,3.613c-7.95,-256.079 -164.929,-554.829 -164.929,-554.829l-1570.45,153.35Z" style="fill:#81807e;fill-rule:nonzero;"/><path d="M135685,98043.4c0,0 -647.429,6234.79 -984.529,8368.79c-393.525,2495.66 -527.346,4557.29 -637.292,5849.25c-138.162,1624.72 -164.933,9615.88 -261.858,10091.2c-96.217,475.258 2146.27,130.937 2146.27,130.937c0,0 1102.43,-10442 1514.03,-12171.6c383.383,-1610.98 1805.55,-8547.46 2154.95,-8107.62c350.104,439.808 783.421,8094.62 1042.31,9364.88c259.042,1270.99 1046.09,11218.2 1046.09,11218.2c0,0 1784.57,352.292 2259.85,-46.3c0,0 215.554,-8572.04 50.621,-10954.9c-62.934,-907.829 1073.49,-10884.7 -383.384,-14901.6c-769.671,-2122.39 -7947.04,1158.86 -7947.04,1158.86l-0.009,-0.034Z" style="fill:#292c47;fill-rule:nonzero;"/><path d="M147682,91213.9c376.146,1028.65 -3077.28,3604.6 -2647.57,3683.45c428.23,78.838 410.159,893.371 410.159,893.371c0,0 3252.31,-2832.03 3185.76,-3666.1c-37.621,-463.679 -2583.19,-7198.33 -2972.38,-7476.83c-264.737,-190.258 -1929.96,-857.933 -2793.68,-1185.62c-399.304,-151.908 -703.942,-258.246 -766.058,-261.854c-197.484,-12.313 -2633.11,220.625 -2633.11,220.625c0,0 -349.391,120.083 -706.737,283.558c-609.096,279.946 -1558.89,716.875 -2240.31,1041.67c-220.625,104.895 -495.521,246.683 -724.096,367.483c27.484,827.55 76.667,1715.14 146.842,2663.49c0,0 126.596,2073.2 138.158,4165.94c109.238,473.821 90.417,1574.79 90.417,1574.79c29.671,1044.57 -86.075,2117.34 -116.458,2716.3c-47.725,942.554 -177.221,2283.7 -177.221,2283.7l1184.17,483.229l5188.83,-48.471l1624.71,-434.758c0,0 -96.946,-4172.46 -72.346,-5385.54c22.413,-1168.27 268.367,-4203.58 316.113,-4379.33c0,0 1739.74,-2526.77 3564.83,2460.94l-0.017,-0.029Z" style="fill:#dbd8e3;fill-rule:nonzero;"/><path d="M136032,98075.1c0,0 3564.08,303.108 6686.21,0l0,1024.3c0,0 -4649.17,443.438 -6842.46,-195.312l156.25,-828.992Z" style="fill:#1d2033;fill-rule:nonzero;"/><path d="M135737,85098.4c27.484,841.284 68.004,1744.06 139.617,2710.51c0,0 67.258,2360.38 203.267,4599.25c46.3,320.45 69.441,648.141 43.4,983.783c-33.992,437.658 -81.005,915.8 -138.159,1414.22c-0.729,6.508 -1.458,13.02 -2.171,18.8c-13.75,118.629 -28.212,237.987 -41.962,358.075c0,2.166 -0.729,2.895 -0.729,5.066c-303.088,2494.2 -816.684,5355.92 -1084.34,6221.79c-56.425,180.125 138.888,347.937 277.775,476.704l975.125,614.15c0,0 401.475,-3700.09 535.292,-4955.88c128.771,-1212.4 533.854,-2837.1 711.079,-4420.58l0,-0.729c224.963,-2009.55 534.583,-3977.87 702.413,-5146.83c434.758,-3044.7 1014.17,-4406.83 1014.17,-4406.83c-277.05,82.467 -3334.78,1528.51 -3334.78,1528.51Z" style="fill:#323657;fill-rule:nonzero;"/><path d="M147342,90947.6c423.196,926.65 -2678.66,3757.95 -2642.5,3854.17c211.217,557 1018.52,1576.96 1018.52,1576.96c0,0 4803.25,-5159.88 4739.58,-5795c-45.575,-462.95 -4072.64,-5604.75 -4461.83,-5883.25c-224.233,-161.304 -1888,-750.866 -2703.97,-1072.76c-149.737,-59.321 -635.85,-242.342 -769.029,-292.967c-173.537,192.413 -1390.35,1501.74 -1811.27,6477.88c-71.612,839.117 152.621,2615.02 303.092,4064.67c159.863,1547.31 336.371,2753.91 466.579,4047.31c255.346,2548.46 434.029,4576.08 434.029,4576.08l2536.18,-1129.2c410.137,-205.437 1120.5,-740.729 965.695,-1173.32c-585.92,-1642.07 -1465.58,-4754.04 -1466.28,-6195c0,0 669.842,-4814.08 894.096,-5589.58c0,0 2024.74,1497.4 2497.1,2534.01l0.008,0.004Z" style="fill:#323657;fill-rule:nonzero;"/><path d="M141873,83459.3c0,0 16.634,-836.217 339.342,-2527.48c86.092,-452.829 -2629.48,1191.41 -2629.48,1191.41c0,0 8.679,158.42 14.458,372.533c2.9,112.846 4.342,241.617 3.613,370.383c0,45.571 -0.713,90.417 -1.442,135.259c-2.9,119.358 -7.95,234.375 -18.8,331.32c-10.142,100.538 -69.446,277.78 -90.433,326.234c-112.121,258.246 1468.47,454.287 2382.74,-199.654Z" style="fill:#eea987;fill-rule:nonzero;"/><path d="M140178,84335.5l-449.929,604.741c0,0 264.025,353 731.979,92.584l-282.05,-697.325Z" style="fill:#d44040;fill-rule:nonzero;"/><path d="M139849,84964.7c0,0 -1707.17,6571.88 -1355.62,11686.9l574.375,1012.01l537.467,-1059.76c0,0 147.567,-9150.75 615.608,-11655.8l-371.825,16.65l0,0.008Z" style="fill:#d44040;fill-rule:nonzero;"/><path d="M139696,83771.8c0,0 481.77,563.525 481.77,563.525c0,0 773.23,-149.742 1000.45,-554.117c227.138,-403.646 -1482.22,-9.408 -1482.22,-9.408Z" style="fill:#eea987;fill-rule:nonzero;"/><path d="M139585,83278.4c0,0 56.404,429.688 592.429,1056.86l-585.208,786.304l-316.842,-1631.95l309.621,-211.217Z" style="fill:#c4c1cc;fill-rule:nonzero;"/><path d="M141918,82869.3c0,0 -957.762,1157.42 -1739.74,1466.3l363.87,899.15l1819.95,-1956.01l-444.079,-409.446Z" style="fill:#c4c1cc;fill-rule:nonzero;"/><path d="M127853,88438.9c0,0 4124.7,4481.33 5098.38,4241.88c449.95,-110.675 1132.1,-887.587 1694.88,-1617.48c185.921,-240.884 368.213,-493.334 541.096,-742.9c0.729,-0.73 0.729,-1.459 0.729,-1.459c690.833,-997.533 1232.64,-1953.83 1232.64,-1953.83c0,0 2042.81,-2393.67 403.645,-3461.38c0,0 -690.833,-69.442 -1084.36,220.625c-362.412,267.658 -1244.93,1952.4 -1388.16,2264.9c-143.229,311.792 -1257.95,2514.48 -1362.12,2579.58c-104.167,65.817 -1198.65,-591.733 -1783.85,-985.241c-945.467,-636.58 -2133.97,-1746.25 -2133.97,-1746.25l-1218.89,1201.55l-0.008,0.017Z" style="fill:#323657;fill-rule:nonzero;"/><rect x="138660" y="98129.7" width="1667.4" height="1264.46" style="fill:#3a4066;"/><path d="M139601,82866.4c0,45.575 -0.713,90.417 -1.442,135.262c1553.09,-521.545 1853.3,-1305.69 1853.3,-1305.69c-484.008,342.883 -1855.47,800.05 -1855.47,800.05c2.895,112.85 4.337,241.616 3.608,370.383Z" style="fill:#a77860;fill-rule:nonzero;"/><path d="M145260,94784.7c0,0 -146.859,122.967 -303.092,121.525c-268.383,-2.17 -574.375,-294.425 -855.763,-28.941c-280.675,265.487 310.33,1394.67 523.717,1527.05c213.4,132.379 697.342,-105.609 1216,-732.05c517.934,-626.459 -580.866,-887.584 -580.866,-887.584Z" style="fill:#eea886;fill-rule:nonzero;"/><path d="M144209,94801.8c0,0 -543.992,186.633 -1123.49,469.462c-508.525,248.125 -1105.31,627.171 -1044.48,755.938c92.587,195.312 546.146,-171.442 1066.98,-383.384c478.888,-194.6 417.396,-75.246 417.396,-75.246c0,0 15.921,-34.72 -465.121,280.68c-517.308,338.541 -1058.32,724.096 -1010.58,830.433c59.238,132.379 78.125,143.958 285.746,51.371c-107.792,78.837 -101.354,120.071 -73.071,169.271c149.029,251.737 985.883,-125.867 1318.72,-276.338c-254.621,117.188 -428.959,230.038 -238.717,326.25c218.471,109.221 1378.04,-479.6 1814.25,-650.329c475.242,-185.9 -947.641,-1498.11 -947.641,-1498.11Z" style="fill:#eea886;fill-rule:nonzero;"/><path d="M144699,94801.8c0,0 117.917,691.546 1018.52,1576.96c0,0 2063.07,-2276.47 2431.27,-2702.55l-1614.57,-936.771l-1835.23,2062.36Z" style="fill:#323657;fill-rule:nonzero;"/><path d="M138928,77794.7c0,0 -836.946,936.771 -589.55,1172.59c204.725,195.312 -563.504,1127.76 -672.013,1284.01c-108.508,156.25 358.784,400.017 438.35,536.734c78.871,136.008 66.563,1576.98 466.596,1715.87c400.038,138.888 2401.62,-62.225 3029.43,-465.141c627.988,-402.917 1605.26,-2667.1 1507.61,-3743.49c-98.455,-1077.12 -2707.61,-2135.42 -4180.42,-500.575Z" style="fill:#eea886;fill-rule:nonzero;"/><path d="M138757,78000.1c0,0 -314.666,-1303.53 966.442,-1908.28c1281.75,-604.742 2904.38,1381.67 3114.15,1492.34c208.975,111.388 1456.88,501.305 285,2575.95c-1006.93,1780.95 -1103.14,1843.16 -1103.14,1843.16c0,0 -146.2,-1206.6 -337.812,-1430.83c-300.209,-350.125 -1111.91,-477.433 -1111.91,-477.433c0,0 620,-916.53 60.834,-1200.82c-558.455,-284.288 -1220.35,-973.663 -1873.56,-894.096Z" style="fill:#323657;fill-rule:nonzero;"/><path d="M141339,79668.9c84.638,-125.142 395.696,-679.254 822.413,-208.333c426.146,470.187 -668.4,1392.5 -761.009,1385.28c-91.77,-6.509 -779.704,-118.646 -61.404,-1176.94Z" style="fill:#eea886;fill-rule:nonzero;"/><path d="M125452,92150.5c0,0 -248.838,979.462 -282.85,1127.03c-33.992,147.571 -1569.72,-258.975 -1569.72,-258.975l1.442,-1197.92c0,0 1671.72,168.559 1851.13,329.863Z" style="fill:#666fb3;fill-rule:nonzero;"/><path d="M125200,93152.6c0,0 429.67,653.213 880.35,966.425c449.929,312.5 2188.21,717.604 2441.4,1018.52c183.733,217.742 438.371,1040.22 -2350.26,664.792c-1981.34,-266.929 -2958.63,-199.655 -3136.58,-544.709c-178.679,-345.779 564.967,-2345.92 564.967,-2345.92c0,0 423.908,230.746 1600.12,240.883Z" style="fill:#2d314f;fill-rule:nonzero;"/><path d="M124852,130050l6491.62,-66729.2l-701.667,-68.075l-6491.62,66729.2l701.667,67.988l0,0.087Z" style="fill:#b8b8b8;fill-rule:nonzero;"/><path d="M113505,128949l6490.88,-66729.2l-700.954,-68.058l-6491.62,66729.2l701.683,68.004l0,0.055l0.021,0Z" style="fill:#b8b8b8;fill-rule:nonzero;"/><path d="M130830,64943.4l67.988,-701.525l-11346.9,-1101.2l-68.004,701.529l11347,1101.2l-0.025,0Z" style="fill:#b8b8b8;fill-rule:nonzero;"/><path d="M130318,70220.1l68.729,-701.687l-11347.7,-1100.97l-68.004,701.666l11346.9,1100.99l0.025,0Z" style="fill:#b8b8b8;fill-rule:nonzero;"/><path d="M129807,75496.4l68.004,-701.683l-11347,-1100.99l-68.717,701.688l11347.7,1100.99l0.004,0Z" style="fill:#b8b8b8;fill-rule:nonzero;"/><path d="M129295,80772.6l68.004,-701.667l-11346.9,-1100.99l-68.712,701.683l11347.6,1100.97Z" style="fill:#b8b8b8;fill-rule:nonzero;"/><path d="M128782,86049.3l68.004,-701.688l-11346.9,-1100.97l-68.004,701.667l11346.9,1100.99Z" style="fill:#b8b8b8;fill-rule:nonzero;"/><path d="M128270,91325.5l68.004,-700.954l-11346.9,-1101.72l-68.004,701.683l11346.9,1100.99Z" style="fill:#b8b8b8;fill-rule:nonzero;"/><path d="M127758,96601.8l67.987,-700.954l-11346.9,-1101.7l-68.004,701.684l11347,1100.98l-0.025,0Z" style="fill:#b8b8b8;fill-rule:nonzero;"/><path d="M127246,101879l68.004,-701.688l-11346.9,-1100.99l-68.004,700.954l11346.9,1101.72Z" style="fill:#b8b8b8;fill-rule:nonzero;"/><path d="M126734,107155l68.004,-701.667l-11346.9,-1100.99l-68.004,700.954l11346.9,1101.7Z" style="fill:#b8b8b8;fill-rule:nonzero;"/><path d="M126222,112431l68.717,-701.687l-11347.7,-1100.97l-68.004,701.666l11347,1100.99l-0.004,0Z" style="fill:#b8b8b8;fill-rule:nonzero;"/><path d="M125710,117708l68.004,-701.684l-11347.7,-1100.99l-68.004,701.687l11347.7,1100.99Z" style="fill:#b8b8b8;fill-rule:nonzero;"/><path d="M125198,122984l68.004,-701.667l-11347,-1100.99l-68.717,701.683l11347.7,1100.98l0.004,0Z" style="fill:#b8b8b8;fill-rule:nonzero;"/><path d="M124686,128261l68.004,-701.684l-11347,-1100.98l-67.987,701.667l11346.9,1100.99l0.025,0Z" style="fill:#b8b8b8;fill-rule:nonzero;"/><path d="M140467,54000.1c0,0 -145.4,179.55 -247.396,227.138c0,-0.005 -191.684,72.412 -324.809,132.1c-41.945,19.095 -78.108,36.666 -100.541,50.483c-93.313,57.658 -280.659,211.946 -543.246,287.483c-262.588,75.504 -1448.94,345.625 -1448.94,345.625l-275.604,-704.008l-197.483,-568.558c0,-0.005 1098.09,-1422.88 1333.92,-1521.56c23.854,-9.479 46.995,-18.092 68.716,-24.375c208.334,-64.167 390.625,-24.308 503.471,-45.575c41.946,-7.533 460.054,-54.687 550.488,32.692c125.866,121.091 164.2,256.075 142.5,373.696c0,0 235.833,248.058 252.466,477.866c0,0 224.896,221.788 164.929,513.679c0,0 203.284,250.575 121.53,423.317Z" style="fill:#eea886;fill-rule:nonzero;"/><path d="M127750,63230.5c274.167,-176.438 628.613,-415.363 1856.2,-1029.22c2284.43,-1143.23 5105.62,-3215.58 5642.38,-3514.9c824.654,-460.225 3430.26,-3643.53 3430.26,-3643.53c-134.55,-479.529 -1370.09,-1441.77 -1370.09,-1441.77c0,0 -3949.65,3741.32 -4812.62,4201.83c-742.916,395.9 -4409,796.004 -5419.58,899.875c-163.471,16.858 -257.517,26.041 -257.517,26.041c-1054.69,1438.6 342.171,4881 930.988,4501.67l-0.013,-0.008Z" style="fill:#4ba2f4;fill-rule:nonzero;"/><path d="M127347,71524.3c0,0 1117.6,4150.75 1412.03,5634.42c256.787,1292.67 773.283,4735.96 847.083,5554.08c73.054,818.87 -3299.34,8742.04 -3650.18,10172.9l-3073.65,-493.35c0,0 3242.19,-8245.79 2396.56,-10078.9c-1257.97,-2724.97 -1421.44,-2643.23 -2412.46,-4887.88c-991.041,-2245.38 -3258.84,-2298.18 -3868.65,-6464.12c0,0 7524.58,-758.091 8349.25,562.792l0.005,0.017Z" style="fill:#2d314f;fill-rule:nonzero;"/><path d="M121883,51358.8c0,0 2040.66,-762.15 2981.06,791.079c941.129,1553.25 850.696,4662.83 -177.95,5045.21c-1028.65,382.375 -2573.78,182.445 -3100.4,-789.43c-526.629,-971.925 -1001.89,-2377.08 -978.75,-3316.03c22.434,-939.025 740.038,-1459.79 1276.04,-1730.83Z" style="fill:#eea886;fill-rule:nonzero;"/><path d="M124343,57099.7c0,0 -82.467,534.879 54.254,798.334c135.988,263.454 -2566.55,270.329 -2566.55,270.329c0,0 -219.912,-1433.09 -635.871,-2643.96c-415.937,-1210.87 3148.16,1575.3 3148.16,1575.3Z" style="fill:#eea886;fill-rule:nonzero;"/><path d="M121195,55524.3c0,0 186.65,307.729 948.37,188.371c761.717,-119.43 1690.54,-1132.52 2008.09,-1243.7c318.3,-111.267 321.183,-298.038 321.183,-298.038l198.942,290.8l337.812,21.333c0,0 -308.162,-906.179 156.25,-1275.81c465.138,-369.583 -481.77,-2933.16 -2923.91,-2079.65c0,0 -1875.71,516.996 -1807.71,1583.7c68.716,1066.7 341.425,2281.75 760.971,2813Z" style="fill:#d88a51;fill-rule:nonzero;"/><path d="M124422,53783c-42.692,-178.959 -497.692,-690.246 -672.029,-142.796c-174.325,547.446 263.316,1283.78 507.1,1220.78c244.496,-63 273.437,-624.425 164.929,-1077.98Z" style="fill:#eea886;fill-rule:nonzero;"/><path d="M116640,64900.9c21.7,267.659 327.691,556.996 536.025,700.225c133.82,91.875 293.679,147.571 465.12,153.367l121.53,3.612l2120.24,72.346c0,0 1576.23,-5094.71 -1380.23,-7037.62c-91.875,9.117 -2068.14,3652.48 -1862.69,6108.08l0,-0.009Z" style="fill:#4ba2f4;fill-rule:nonzero;"/><path d="M123035,95257.6c177.954,345.054 1155.25,277.779 3136.58,544.708c541.075,72.325 967.879,100.538 1302.79,96.196l115.75,-1192.12c-579.429,-201.113 -1253.61,-409.446 -1509.69,-587.396c-450.679,-313.213 -880.35,-966.425 -880.35,-966.425c-1176.21,-10.138 -1600.12,-240.888 -1600.12,-240.888c0,0 -743.646,2000.14 -564.967,2345.92Z" style="fill:#2d314f;fill-rule:nonzero;"/><path d="M124345,57742.6c0,0 -1663.77,-386.996 -2602,-70.362l-141.791,131.058c0,0 -285,546.458 787.762,593.387c1073.5,47.03 2759.7,125.084 1956.03,-654.083Z" style="fill:#4ba2f4;fill-rule:nonzero;"/><path d="M117843,96731.8c0,0 -249.562,979.462 -283.558,1127.03c-33.992,147.571 -1569.74,-258.246 -1569.74,-258.246l1.459,-1198.65c0,0 1671.72,168.559 1851.84,329.863Z" style="fill:#666fb3;fill-rule:nonzero;"/><path d="M118998,70961.4c0,0 -559.896,2310.49 -725.538,4623.12c-153.366,2137.59 -432.604,4481.33 -653.941,6717.29c-247.396,2492.03 -952.692,6520.54 -988.871,7853.75c-36.892,1333.18 -1158.85,7159.29 -1158.85,7159.29l2869.65,329.134c0,0 1864.88,-10295.1 2305.42,-11347.7c440.52,-1052.52 2624.41,-8555.42 2698.2,-9397.42c73.071,-842.012 -4346.08,-5937.5 -4346.08,-5937.5l0.021,-0.008Z" style="fill:#2d314f;fill-rule:nonzero;"/><path d="M117590,97734.7c0,0 429.687,652.5 880.35,965.713c450.675,313.229 2188.23,717.604 2442.13,1018.52c183.004,217.746 437.637,1040.23 -2350.99,664.791c-1981.34,-266.925 -2958.61,-199.65 -3136.56,-544.704c-177.954,-345.05 564.946,-2345.21 564.946,-2345.21c0,0 423.908,230.037 1600.12,240.887Z" style="fill:#2d314f;fill-rule:nonzero;"/><path d="M127928,76708.9c244.496,-34.721 -607.638,-7322.04 -542.533,-7779.21c44.133,-304.55 36.891,-2672.9 19.533,-4149.17l266.196,-1494c148.3,-107.933 347.221,-232.637 585.208,-369.721c369.671,-213.612 834.063,-457.675 1349.85,-715.416c-60.054,-352.867 -102.017,-630.784 -117.921,-793.196c-128.767,-1312.36 -1010.55,-2007.81 -1509.69,-2300.57c-203.992,-119.342 -344.338,-171.721 -344.338,-171.721c-190.246,-80.504 -376.146,-158.558 -557.725,-233.004c-1202.97,-495.292 -2731.48,-960.292 -2731.48,-960.292l-2456.6,-0.004c0,0.004 -1869.22,373.629 -2983.94,829.654c-142.516,58.525 -276.337,133.179 -402.204,220.85l333.492,7002.17c0,1.442 0.708,2.9 0.708,4.342c0,2.171 0.729,5.066 1.459,9.408c149.741,984.513 308.162,2146.98 360.958,2961.51c21.7,332.758 -358.788,2118.78 -557,3758.68l-695.154,3923.61c0,0 401.458,1625.43 9981.17,256.075l0.013,-0.004Z" style="fill:#4ba2f4;fill-rule:nonzero;"/><path d="M2531.38,122165c0,0 -19.375,-343.613 675.208,-742.188l-899.375,-953.42c0,0 -540.137,285.729 -1074.72,778.35c-534.583,491.908 1298.89,917.258 1298.89,917.258Z" style="fill:#eea987;fill-rule:nonzero;"/><path d="M24120.3,122585c0,0 -68.438,-844.895 194.512,-1255.78l-1125.14,-230.037c0,0 -644.967,918.7 -611.042,1469.19c33.925,550.484 1541.67,16.629 1541.67,16.629Z" style="fill:#eea987;fill-rule:nonzero;"/><path d="M4557.88,125512c-11.733,318.3 5.712,494.08 -967.375,473.821c-973.092,-20.258 -1871.1,-1210.21 -2497.9,-2047.17c-627.258,-837.67 -1465.64,-1254.34 -911.979,-1788.9c68.071,-65.104 139.825,-131.666 213.696,-198.212c524.22,-473.092 1142.87,-933.892 1225.77,-1028.65c93.959,-108.509 927.95,1100.26 927.95,1100.26c0,0 -93.246,589.55 51.65,940.4c144.529,350.104 350.834,1612.41 804.617,1835.94l0.712,0c453.925,222.796 1155.17,642.362 1152.86,712.516Z" style="fill:#eea987;fill-rule:nonzero;"/><path d="M26948.9,125349c-646.633,-34.008 -2477.57,-189.529 -3499.84,-116.475c-1022.29,73.787 -1412.55,-95.483 -1316.5,-823.921c5,-39.792 11.08,-79.567 17.955,-120.8c115.52,-711.804 431.266,-1600.85 460.937,-1898.87c31.25,-315.4 1315.03,-96.946 1315.03,-96.946c0,0 642.5,1021.43 1007.38,1237.71c364.583,216.283 1475.69,669.133 1900.75,875.296c31.113,15.191 64.896,28.925 100.555,42.675l0.279,0c450.746,169.27 1220.92,217.012 1324.08,465.137c111.042,267.638 -663.696,469.463 -1310.62,436.196Z" style="fill:#eea987;fill-rule:nonzero;"/><path d="M26948.9,125349c-646.633,-34.008 -2477.57,-189.529 -3499.84,-116.475c-1022.29,73.787 -1412.55,-95.483 -1316.5,-823.921c5,-39.792 11.08,-79.567 17.955,-120.8c251.075,-162.05 2014.53,0 3054.53,170.713c1039.95,170 1730.12,-10.85 1730.12,-10.85l0.279,0c450.746,169.27 1220.92,217.012 1324.08,465.137c111.042,267.638 -663.696,469.463 -1310.62,436.196Z" style="fill:#004e8c;fill-rule:nonzero;"/><path d="M4588.67,125502c-11.721,317.567 -25.088,504.2 -998.18,483.942c-973.087,-20.262 -1871.09,-1210.21 -2497.89,-2047.17c-627.259,-837.675 -1465.65,-1254.34 -911.98,-1788.91c68.071,-65.104 139.825,-131.667 213.696,-198.213c29.15,25.313 1252.02,1123.4 1628.68,1873.56c626.025,1246.38 1350.12,967.883 1381.31,974.396l0.712,0c453.921,222.791 1186.06,632.22 1183.66,702.395Z" style="fill:#004e8c;fill-rule:nonzero;"/><path d="M28633.6,112883c-1065.6,1616.76 -4318.75,9395.25 -4318.75,9395.25l-2560.4,-264.758c0,0 1814.53,-5454.29 2703.78,-7466.71c657.987,-1488.72 1562.28,-2221.49 706.962,-2641.06c-722.587,-355.175 -5078.04,-2100.7 -6921.75,-3096.79c-235.675,-127.313 -430.258,-242.329 -570.746,-339.984c-61.77,-43.404 -112.845,-83.195 -152.779,-119.358c-845.987,-767.517 1061.84,-6187.08 4024.52,-4455.29c0,0 6447.5,5150.46 6934.46,6023.58c487.134,873.837 1220.64,1347.66 154.667,2965.14l0.033,-0.029Z" style="fill:#ccc;fill-rule:nonzero;"/><path d="M21408.4,103728c0,0 -4381.08,6142.21 -8354.79,9459.62c-1124.79,938.942 -2040.36,1718.02 -3646.06,2920.28c-853.505,639.463 -2364.08,1982.07 -3591.86,3098.96l-51.004,47.012c-875.575,797.171 -1598.73,1472.08 -1821.62,1681.15c-7.95,6.512 -14.895,13.021 -21.058,19.533l-24.808,23.142l-801.284,810.904l-1146.04,-1117.62c0,0 1368.7,-1653.65 2151.04,-2931.85c1097.93,-1793.25 2699.93,-3782.55 3528.58,-4356.17c1419.62,-983.071 2801.56,-1568.3 3324.29,-2499.29c523.075,-930.259 2321.75,-4679.54 2321.75,-4679.54c0,0 415.938,-3903.37 2811.06,-4764.92c2257.01,-811.629 5321.83,2288.79 5321.83,2288.79l-0.029,0.004Z" style="fill:#ccc;fill-rule:nonzero;"/><path d="M23928,87390.9c-112.846,162.763 -202.171,374.709 -272.275,601.842c-66.546,213.404 -116.18,440.537 -152.917,651.042c-79.721,457.187 -99.096,836.962 -99.096,836.962c0,0 -2523,-742.917 -2059.32,-1310.05c463.542,-567.846 346.721,-2397.27 346.721,-2397.27c0,0 2609.08,1082.17 2236.89,1617.48Z" style="fill:#eea987;fill-rule:nonzero;"/><path d="M25726,82557.2c0,0 614.95,617.763 203.421,2238.14c0,0 50.85,1317.99 234.583,1560.33c183.734,242.329 -559.895,273.438 -649.304,431.858c-89.55,159.134 -291.6,917.242 -839.204,1343.32c-547.587,426.058 -2992.9,-1153.8 -3060.1,-1951.68c-67.046,-797.883 -1587.53,-4307 1215.85,-4260c2803.32,46.304 2894.76,638.021 2894.76,638.021l0,0.016Z" style="fill:#eea886;fill-rule:nonzero;"/><path d="M24943.5,96896.4c-104.529,180.833 -220.346,369.637 -347.15,567.121c-342.45,536.025 -764.188,1137.15 -1266.35,1836.67c-110.817,154.079 -247.034,325.52 -365.521,535.295c-648.942,1147.29 -1179.03,3101.12 -1357.57,3806.42c-42.237,167.1 -62.429,253.196 -62.429,253.196c-3387.5,73.054 -6944.79,-2130.37 -6944.79,-2130.37c2228,-2355.31 3099.9,-4173.88 3099.9,-4173.88c233.713,-639.479 374.842,-1357.07 419.113,-2304.69c127.691,-2739.45 888.387,-4250.58 1627.03,-5446.33c738.212,-1195.75 1598.82,-1668.84 1598.82,-1668.84l2071.18,1256.51c241.458,777.637 1086.67,1644.97 1916.96,3546.01c612.484,1403.37 491.529,2400.17 -389.183,3922.9l0,-0.017Z" style="fill:#ffbf55;fill-rule:nonzero;"/><path d="M26041.8,84210.1c0,0 559.529,-3386.12 -2789.34,-3015.76c-3348.89,370.366 -1913.72,4218.75 -1555.85,5465.12c0,0 81.821,-1889.48 1677.52,-1836.67c1595.71,53.525 1951.1,-291.525 2667.68,-612.708l0,0.012Z" style="fill:#464240;fill-rule:nonzero;"/><path d="M23149.9,84325.9c-173.975,-360.971 -869.655,-224.962 -829.655,307.434c39.934,533.141 548.909,1098.82 748.492,856.491c199.654,-241.616 336.717,-634.408 81.163,-1163.92Z" style="fill:#eea987;fill-rule:nonzero;"/><path d="M21972.5,82208.9c0,0 -896.063,-992.479 -1655.75,3.612c-759.771,996.826 632.521,2564.38 1301.86,1741.89c669.429,-822.483 353.892,-1745.5 353.892,-1745.5Z" style="fill:#464240;fill-rule:nonzero;"/><path d="M23655.8,87992.6c-66.546,213.404 -116.183,440.537 -152.916,651.042c-823.58,-449.221 -1374.93,-1681.13 -1374.93,-1681.13c578.421,576.53 1527.64,1029.38 1527.64,1029.38l0.208,0.713Z" style="fill:#a77860;fill-rule:nonzero;"/><path d="M21502.7,81868c0,0 -408.491,-666.963 -1351.34,-676.371c-942.779,-8.683 -2100.55,1417.83 -1807.23,3493.21c293.266,2075.37 -376.734,4499.42 -2346.42,6495.25c0,0 3437.57,-1852.59 3755.21,-4585.5c317.779,-2732.2 1283.71,-2738.72 1283.71,-2738.72l466.062,-1987.85l0,-0.025Z" style="fill:#464240;fill-rule:nonzero;"/><path d="M29690,101963c0,0 903.071,16.629 1115.52,49.913c212.533,32.55 666.891,156.25 728.437,114.287c61.563,-42.675 259.775,-889.758 414.425,-1072.76c154.813,-183.75 703.925,-2059.46 604.671,-2045.73c-99.167,13.75 -440.312,497.692 -1143.3,1320.9c-702.971,822.483 -1504.25,519.375 -1787.47,713.245c-283.28,193.871 67.708,920.142 67.708,920.142Z" style="fill:#eea886;fill-rule:nonzero;"/><path d="M17672.7,108469c0,0 1874.13,-2199.81 2017.14,-2462.4c-76.233,167.829 -1058.94,2332.9 -1446.39,2802.38c-235.68,-127.313 -430.263,-242.329 -570.75,-339.983Z" style="fill:#919191;fill-rule:nonzero;"/><path d="M24943.5,96896.4c-104.529,180.833 -220.346,369.637 -347.15,567.121c0,0 -1064.97,-3241.46 -1168.54,-4040.07c0,0 1006.72,2268.53 1515.69,3472.95Z" style="fill:#bd8d3f;fill-rule:nonzero;"/><path d="M30076.1,100948c0,0 -3357.92,-766.058 -5000.96,-2324.22c-430.038,-407.255 -2121.46,-6996.54 -2121.46,-6996.54c0,0 -464.687,-1665.21 -1936.41,-1184.9c-1471.72,481.058 -882.95,2157.85 -882.95,2157.85c0,0 2034.57,5213.42 3111.47,7241.75c896.042,1686.93 6855.54,2247.53 6855.54,2247.53l-25.259,-1141.49l0.017,0.02Z" style="fill:#ffbf55;fill-rule:nonzero;"/><path d="M21067.8,88357.2l474.112,-596.058l2033.56,1236.25l12.45,1031.55l-2520.12,-1671.74Z" style="fill:#e0e0e0;fill-rule:nonzero;"/><path d="M34019.1,97432.2c-1370.94,1974.1 -2293.04,4126.88 -2788.33,6336.79l-1.946,2.879c-332.396,1489.45 -473.312,3004.2 -423.904,4510.29c168.975,5516.5 2863.58,10882.5 7744.08,14272.3c8190.96,5687.92 19439.1,3660.31 25125.3,-4528.33c5688.29,-8190.83 3659.95,-19438.7 -4530.83,-25126.6c-2790.94,-1938.65 -5938,-2981.77 -9098.08,-3187.2c-5217.17,-341.442 -10475.7,1593.61 -14233.1,5525.17c-646.267,672.017 -1246.03,1406.25 -1793.26,2194.74l0.017,-0.037l0.012,-0.005Z" style="fill:#33a4ff;fill-rule:nonzero;"/><path d="M33138.3,92675.1l15698.1,15044.8l1445.61,-21700c-6284.08,-412.325 -12618,1919.13 -17143.8,6655.12l0,0.055l0.017,-0.013Z" style="fill:#007fe6;fill-rule:nonzero;"/><path d="M33522.5,97084.7c-1416.1,2039.2 -2368.49,4262.88 -2880.07,6545.83l18193.9,4089.27l-13461.7,-12901.5c-667.554,693.717 -1287.05,1452.55 -1852.15,2266.35l-0.05,0l0.025,0Z" style="fill:#0064b5;fill-rule:nonzero;"/><path d="M29527.9,103381l-2.083,2.883c-364.375,1631.95 -518.959,3292.83 -464.705,4943.58l19775.3,-606.908l-19308.5,-4339.54l-0.054,0l0.008,-0.016Z" style="fill:#004e8c;fill-rule:nonzero;"/><path d="M86229.1,120429c0,0 549.046,822.483 1320.16,1000.43c771.125,177.225 1530.67,460.071 1536.46,946.183c5.796,486.821 -2228.72,776.909 -3111.23,286.459c-1317.29,-732.067 -1451.11,-511.442 -1597.24,-877.467c-146.129,-366.025 175.783,-1344.05 166.387,-1460.5c-12.308,-143.959 1685.47,104.896 1685.47,104.896Z" style="fill:#353a3d;fill-rule:nonzero;"/><path d="M86143.7,120023c0,0 99.825,397.138 85.366,405.817c-15.191,8.683 -1737.55,213.388 -1685.47,-104.896c41.946,-258.975 101.996,-539.633 101.996,-539.633l1498.11,238.712Z" style="fill:#81807e;fill-rule:nonzero;"/><path d="M80431.2,120375c0,0 392.066,786.304 1061.91,1054.69c716.146,285.729 1290.5,615.591 1277.5,1089.41c-13.021,473.8 -1750.59,954.859 -3014.32,44.842c-798.612,-575.088 -1051.79,-577.988 -1179.85,-939.671c-128.037,-362.412 222.084,-1302.81 217.746,-1417.1c-5.783,-140.329 1637.01,167.829 1637.01,167.829Z" style="fill:#353a3d;fill-rule:nonzero;"/><path d="M80450.8,119966c0,0 -4.321,400.746 -19.513,408.717c-14.479,7.22 -1679.7,144.671 -1637.01,-167.829c33.279,-247.396 161.317,-546.875 161.317,-546.875l1495.21,305.987Z" style="fill:#81807e;fill-rule:nonzero;"/><path d="M86555.3,95934.7c0,0 1547.31,6822.92 1900.31,8901.17c300.916,1768.66 540.362,3610.38 396.404,4887.88c-178.663,1580.58 -2416.08,9774.29 -2322.76,10238c93.312,462.971 -2341.58,73.783 -2341.58,73.783c0,0 1701.39,-9139.17 1361.41,-10840.6c-251.755,-1259.39 -2458.05,-9628.92 -2795.87,-9199.21c-338.542,428.979 -757.379,7898.58 -1007.68,9137.75c-251.008,1240.59 -1019.24,11037.3 -1019.24,11037.3c0,0 -1718.75,253.179 -2178.11,-135.279c0,0 -209.042,-8365.17 -49.912,-10690.1c61.495,-885.416 -1037.33,-10621.4 371.095,-14541.4c745.088,-2071.04 7685.92,1130.64 7685.92,1130.64l0.004,-0.021Z" style="fill:#2d3133;fill-rule:nonzero;"/><path d="M93288.3,89732.6c-1102.43,-154.812 -4571.04,1381.65 -4886.42,1265.19c-216.3,-79.584 -724.825,-1736.84 -1088.7,-2991.18c-214.845,-742.187 -378.316,-1342.59 -401.475,-1392.5l-1.441,-2.9c3.629,33.284 60.033,600.4 -11.579,1346.22c-5.055,47.742 -26.755,60.762 -32.555,110.679c-1.441,12.292 -8.679,52.792 -13.75,65.104c-81.008,183.729 -110.658,529.513 -185.175,817.413c-109.945,424.616 -170.708,1003.33 -126.595,1606.63l0,2.171c-0.713,5.054 -0.713,9.391 -1.442,13.733c0,13.75 -0.729,27.5 -0.729,41.233c0,5.071 -0.713,10.85 -0.713,16.65c-30.379,1074.22 43.388,2232.34 74.5,2848.66c48.471,954.133 -265.487,1384.55 -274.879,1396.84l-332.762,-46.288l-239.425,-34.008l-3.63,-0.713l-320.45,-44.862l-1257.95,-176.492l-455.729,-64.392l-107.067,-15.191l-797.166,-112.117l-2246.81,-316.112l-246.683,-34.721l-101.267,-13.75l-847.795,-120.088l-382.675,-53.525l-1.438,0c0,0 -325.521,-2306.86 -350.125,-3553.96c-22.429,-1145.12 -635.85,-3470.78 -735.675,-3842.6c-0.729,-2.883 -1.458,-5.054 -2.171,-7.95c-0.712,-3.613 -1.441,-6.513 -2.9,-10.125c-1.437,-6.509 -2.879,-11.579 -4.337,-15.917c-0.729,-2.9 -1.442,-5.783 -2.154,-8.683c0,-0.729 0,-1.442 -0.73,-1.442l0,-2.896c-1.458,-2.9 -1.458,-3.612 -1.458,-3.612c0,0 -1833.75,1926.35 -2189.67,2766.93c-108.504,255.35 -439.808,949.062 -862.275,1793.25c-289.337,-551.217 -470.187,-933.875 -470.187,-1030.09c0,-11.579 0.729,-24.6 0.729,-37.621c27.479,-831.166 898.437,-4201.38 1585.64,-6403.38c533.854,-1072.78 993.92,-1940.83 1141.49,-2046.44c224.254,-160.592 1165.37,-563.508 1987.14,-889.758c26.75,-10.85 53.521,-21.7 80.291,-31.825c76.688,-30.38 151.913,-60.05 225.696,-88.263c36.163,-14.462 72.325,-28.212 108.509,-41.946c19.529,-7.237 38.333,-14.479 57.862,-21.7c15.921,-6.508 31.113,-12.308 47.013,-18.091c410.887,-156.25 723.387,-265.484 787.762,-269.096c10.138,-0.729 27.5,-0.729 50.642,0c27.483,0.729 62.204,2.171 104.166,5.071c507.813,29.65 2023.28,171.441 2510.85,217.725c88.98,8.679 143.959,13.75 151.913,14.479l1.458,0c0,0 232.188,106.337 581.579,266.196l0.73,0l32.55,15.191c211.233,96.929 455.729,225.696 714.708,367.484c507.083,277.779 1066.98,602.57 1531.39,823.925c455,216.283 1078.56,517.933 1132.08,560.625l2307.59,6653.67l4002.46,-731.337l-230.763,1460.5l-0.008,0Z" style="fill:#decbc4;fill-rule:nonzero;"/><path d="M86337.4,94876.4c0,0 169.27,201.825 217.741,1058.32c0,0 -6950.96,-810.921 -7685.92,-1130.64c0,0 -28.213,-943.3 127.325,-959.929c171.441,-18.092 7340.88,1032.25 7340.88,1032.25l-0.025,0Z" style="fill:#495055;fill-rule:nonzero;"/><path d="M80410.3,79843c20.992,1090.85 2133.25,1687.64 2133.25,1687.64c0,0 883.975,-1107.5 672.759,-1213.84c-83.196,-41.942 -116.475,-206.875 -126.596,-392.063c-10.142,-176.512 1.441,-371.825 11.562,-494.792c6.525,-77.395 12.309,-127.308 12.309,-127.308c0,0 -301.65,-318.3 -685.763,-697.346c-670.575,-663.333 -1592.88,-1513.32 -1594.34,-1175.49c0,18.075 2.171,39.775 7.238,64.375c162.762,760.991 -430.417,2348.82 -430.417,2348.82Z" style="fill:#eea886;fill-rule:nonzero;"/><path d="M80585.3,94011.4c0,0 -151.925,957.033 -164.929,1206.6l-321.912,-64.375c0,0 88.975,-1012.02 141.058,-1182.02l345.783,39.792Z" style="fill:#353a3d;fill-rule:nonzero;"/><path d="M85757.4,94764.3c0,0 122.237,870.229 125.137,1198.64l-340,-44.858c0,0 -70.158,-1085.78 -109.237,-1199.36l324.1,45.571Z" style="fill:#353a3d;fill-rule:nonzero;"/><path d="M81223.3,78244.3c4.342,6.508 94.046,140.346 246.667,332.758c324.791,407.988 933.87,1078.56 1619.65,1347.66c-10.142,-176.512 1.437,-371.825 11.562,-494.791c70.171,-2.171 140.346,-10.121 209.792,-25.313c-188.092,-328.421 -459.358,-672.746 -459.358,-672.746l-423.888,-126.596l-1204.43,-360.97Z" style="fill:#a77860;fill-rule:nonzero;"/><path d="M80818.3,77445.1c182.308,397.137 355.904,685.038 405.104,799.325c32.533,74.513 119.358,196.042 246.667,332.758c347.95,375.438 995.383,870.23 1631.22,852.867c70.171,-2.171 140.346,-10.121 209.792,-25.313c256.788,-56.425 560.608,-175.783 726.996,-502.762c1317.99,-2579.56 363.854,-4689.67 363.854,-4689.67c0,0 -3603.16,-1018.51 -4166.67,65.834c-395.695,760.987 153.35,2232.34 583.038,3166.96Z" style="fill:#eea886;fill-rule:nonzero;"/><path d="M84402,74212.2c0,0 334.917,-18.071 417.396,-652.479c81.737,-627.171 -83.904,-800.783 -83.904,-800.783c0,0 -1487.28,-622.829 -2021.13,-703.854c-534.583,-81.009 -1848.23,-158.421 -2155.68,193.871c0,0 -747.97,-174.338 -951.962,1067.71c-323.35,1970.49 1101.7,3883.11 1101.7,3883.11c0,0 -12.292,-1286.89 271.996,-1457.62c283.558,-170.712 528.787,235.105 528.787,235.105l580.154,104.166c0,0 -881.804,-1904.65 176.492,-1974.83c1057.59,-70.887 1530.68,216.284 2136.15,105.604Z" style="fill:#d6d6d6;fill-rule:nonzero;"/><path d="M81493.3,75464.7c-55.696,-567.116 -1080.73,-783.42 -1012,-189.512c68.717,594.617 573.646,1165.36 806.563,1145.1c233.645,-19.533 247.395,-523.733 205.433,-955.592Z" style="fill:#eea886;fill-rule:nonzero;"/><path d="M78224.1,90543.4c0,413.767 -134.546,887.584 -341.437,1391.79c-5.784,13.021 -10.854,26.041 -15.921,38.333c-142.5,-303.821 -277.05,-595.346 -397.138,-865.158c0,-0.729 -0.712,-0.729 -0.712,-1.458c-330.588,-740.73 -557.725,-1317.98 -570.746,-1546.58c-81.754,-1469.18 1000.43,-3159.72 1000.43,-3159.72l0,2.9c0.73,0 0.73,0.712 0.73,1.437c0.712,2.9 1.425,5.783 2.154,8.683c1.458,5.071 3.629,10.121 4.341,15.921c1.459,3.609 2.188,6.509 2.896,10.121c0.713,2.9 1.442,5.071 2.171,7.95c221.354,873.125 313.229,4095.78 313.229,4095.78Zm-3378.92,413.767c446.334,852.15 1151.63,2106.49 1847.52,3321.77c-91.858,171.442 -181.562,340.712 -266.908,508.525c-209.792,409.441 -394.984,805.85 -527.363,1174.77c-158.421,444.879 -379.046,1582.76 43.4,1793.98l2223.68,1227.58c0,0 15.17,-43.4 44.841,-123.696c73.788,-199.654 232.917,-627.171 454.288,-1180.55c7.225,-18.092 29.654,-70.904 62.208,-148.3c44.129,-104.167 108.504,-253.179 180.85,-423.179c33.263,-76.683 67.275,-156.979 102.708,-239.442c40.521,-94.029 82.484,-191.683 123.696,-287.9c60.767,-141.058 120.817,-281.387 176.513,-410.887c151.908,-353 270.554,-627.879 270.554,-627.879c7.221,-16.65 14.462,-32.555 22.412,-49.205c72.346,-156.25 146.13,-313.208 222.084,-470.187c116.458,-242.329 237.258,-483.942 360.246,-719.758c12.291,-23.871 24.583,-47.742 36.891,-71.617c21.7,-41.958 44.113,-83.192 65.817,-124.425c13.75,-25.313 27.5,-49.913 41.233,-75.225c2.896,-5.8 5.796,-10.85 9.409,-16.65c5.07,-10.121 10.85,-20.242 15.92,-29.654c643.071,-1172.6 1367.19,-2153.5 1597.93,-3591.58c22.429,-138.159 43.404,-276.338 63.662,-413.767c33.992,-227.867 64.375,-453.558 92.588,-674.2c10.137,-83.179 20.987,-166.371 31.112,-248.108c115.746,-959.204 184.459,-1814.24 240.154,-2409.58c174.342,-1854.74 -962.1,-3863.58 -1834.48,-5104.17c-466.596,-663.334 -857.204,-1107.5 -932.446,-1191.41c-1.441,-1.441 -2.883,-2.9 -4.341,-4.337c-15.904,5.779 -31.096,11.579 -47.013,18.087c-19.533,7.225 -38.333,14.463 -57.866,21.705c-36.18,13.733 -72.342,27.479 -108.509,41.941c-73.783,28.213 -149.008,57.883 -225.691,88.267c-26.771,10.121 -53.542,20.971 -80.296,31.821c-844.913,331.304 -2835.64,920.137 -3059.18,1080c-129.479,92.604 -206.162,839.845 -539.637,1909.01c-687.204,2201.96 -1095.19,5521.54 -1115.45,6350.54c0,13.021 -0.729,26.041 -0.729,37.621c0,96.216 180.85,478.87 470.191,1030.09l0,-0.004Z" style="fill:#3c4145;fill-rule:nonzero;"/><path d="M94765.8,87477.6l-5034.71,1095.92l-2400.16,-6276.04c-52.829,-41.962 -741.475,-412.329 -1196.48,-629.341c-474.55,-225.696 -1074.95,-504.93 -1607.35,-750.159c-253.925,-117.9 -494.08,-227.862 -695.905,-320.45l-16.645,13.021c0,0 297.325,989.583 681.441,3459.2l0,1.442c13.75,82.466 26.042,167.1 39.771,253.196c0.729,10.12 2.9,20.241 4.342,30.383c8.679,57.133 17.362,115.017 26.041,173.608c0.73,7.221 2.171,13.734 2.9,20.242c5.78,39.796 12.309,79.587 17.363,119.358c14.458,97.659 28.937,197.484 43.4,298.767c171.442,1202.26 412.329,3247.97 643.804,5313.96l0,0.729c182.292,1628.32 598.958,3299.33 731.338,4545.71l0,2.9c26.77,243.766 88.975,570.016 173.608,936.771c9.408,41.962 18.821,83.904 28.942,126.595c372.55,1573.35 1095.92,3801.36 1095.92,3801.36l210.505,-194.584l623.541,-575.816c143.959,-132.375 198.213,-335.642 140.346,-521.563c-345.783,-1116.16 -1522,-5065.83 -1736.84,-7843.58c-0.712,-0.729 -0.712,-1.459 -0.712,-2.171c-67.292,-872.396 187.346,-1694.17 335.646,-2473.96c2.896,7.22 5.066,13.733 7.237,20.97c124.409,344.325 261.129,718.317 399.304,1082.9c371.096,978.734 750.871,1885.85 909.271,1943.72c351.563,129.496 6981.38,-1683.3 7026.92,-1943.72l-452.846,-1709.34l-0.004,-0.021Z" style="fill:#3c4145;fill-rule:nonzero;"/><path d="M80196.2,83055.1l1027.21,579.429l-439.1,447.758l1168.98,6312.21c238.717,-1479.33 347.225,-2884.85 427.521,-3746.39c269.096,-2867.48 -2593.32,-6102.42 -2771.27,-6299.92c-137.429,52.084 -285.729,109.238 -439.079,170l1025.75,2536.89l0,0.021Z" style="fill:#51565c;fill-rule:nonzero;"/><path d="M83798.7,80582.6c0,0 384.112,1254.34 831.162,4383.67c171.442,1202.99 412.325,3249.43 643.8,5314.67l239.446,-5911.46l-489.721,-530.242l434.738,-543.979l-930.971,-2377.03c-253.925,-117.9 -493.35,-227.867 -695.904,-320.45l-32.55,-15.192l0,0.017Z" style="fill:#51565c;fill-rule:nonzero;"/><path d="M79558.3,80360.5l852.137,-517.204c0,0 23.142,467.291 2133.25,1687.64l-598.958,1687.64l-2386.43,-2858.07Z" style="fill:#f5e2d9;fill-rule:nonzero;"/><path d="M83104.9,80078.4c0,0 -33.284,504.2 -561.355,1452.55l1169.72,1524.17l85.346,-2472.52l-693.712,-504.2Z" style="fill:#f5e2d9;fill-rule:nonzero;"/><path d="M82540.8,81530.5c0,0 -226.425,906.387 -145.417,1160.3c0,0 498.421,181.579 856.492,-45.575c0,0 -253.175,-634.392 -711.075,-1114.72Z" style="fill:#0064b5;fill-rule:nonzero;"/><path d="M83712.4,94605.1c126.579,-639.463 5.783,-2556.43 0.729,-2637.43l-108.509,6.508c0.713,20.246 125.142,1984.22 0.713,2609.95l107.067,20.971Z" style="fill:#ad9f99;fill-rule:nonzero;"/><path d="M82824.9,94310.1c0,0 1022.85,122.254 1360.66,206.892l-44.113,1145.83l-1338.98,-142.5l22.43,-1210.23Z" style="fill:#69737a;fill-rule:nonzero;"/><path d="M83048.3,82563.9c0,0 1140.76,2881.21 954.862,6105.33c-193.145,3343.45 -509.27,4555.83 -509.27,4555.83l-703.109,881.804l-310.35,-1084.34c0,0 943.3,-4262.17 334.204,-8409.29c-109.95,-751.596 -274.15,-2175.94 -274.15,-2175.94l507.813,126.6l0,-0.004Z" style="fill:#0064b5;fill-rule:nonzero;"/><path d="M79621.2,96168.4c0,0 244.5,489.721 489.012,571.475c245.225,81.738 601.858,479.6 601.858,479.6l-1723.11,907.117c0,0 -459.342,-896.996 -479.6,-1468.47c-20.262,-570.746 1111.84,-489.721 1111.84,-489.721Z" style="fill:#eea886;fill-rule:nonzero;"/><path d="M79784.5,96214.7l114.287,229.305c0,0 -1095.19,800.783 -1389.62,851.425l-101.267,-305.992l1376.6,-774.738Z" style="fill:#decbc4;fill-rule:nonzero;"/><path d="M79899.1,96224.7c0,0 -820.312,677.813 -1511.86,991.025l-2324.95,-4181.88l1205.15,-2329.27c0,0 2577.4,5112.12 2631.65,5520.12l0,-0.005Z" style="fill:#3c4145;fill-rule:nonzero;"/><path d="M86883.3,88104.3c124.412,344.325 261.129,718.316 399.308,1082.9c32.55,-422.45 40.504,-815.975 31.092,-1180.56c-54.963,-2169.41 -737.846,-3306.56 -737.846,-3306.56c156.979,378.313 232.204,1189.23 267.654,1922.74c38.334,773.279 32.554,1460.5 32.554,1460.5l7.238,20.971Z" style="fill:#2d3133;fill-rule:nonzero;"/><path d="M76425.8,94787.6l1861.25,2247.55l-1594.34,-2756.08c-91.858,171.442 -181.562,340.713 -266.912,508.525Z" style="fill:#2d3133;fill-rule:nonzero;"/><path d="M89942.4,91969.3l4297.58,0c294.425,0 550.5,-201.821 619.946,-488.28l1866.32,-7706.88c97.654,-401.475 -206.896,-787.758 -619.934,-787.758l-4296.88,0c-295.137,0 -551.212,201.113 -620.658,487.571l-1866.32,7706.88c-96.942,401.475 206.875,788.487 619.933,788.487l0.005,-0.02Z" style="fill:#b8b8b8;fill-rule:nonzero;"/><path d="M95198.3,89826.4c-209.771,-194.583 -615.588,-307.429 -962.813,-539.633c-347.237,-232.209 -57.15,-471.65 -57.15,-471.65c-357.345,-122.242 -319.012,-285 -273.437,-396.409c62.221,-149.737 452.117,-107.066 452.117,-107.066c0,0 -350.121,-77.396 -493.35,-141.059c-143.959,-63.645 -95.488,-314.67 125.866,-393.508c221.354,-79.583 1122.69,143.229 1122.69,143.229c0,0 -146.858,-72.341 -591.738,-295.137c-444.145,-223.525 -541.804,-426.075 -279.945,-523.734c182.291,-67.275 540.383,74.517 1227.59,536.025c517.204,347.95 475.258,392.796 475.258,392.796c0,0 -494.079,2028.35 -745.087,1796.15Z" style="fill:#eea886;fill-rule:nonzero;"/><path d="M162087,6812.93c-3419.41,47.538 -6161.75,2867.76 -6114.71,6286.75c28.921,2082.9 1094.46,4000.94 2849.39,5130.83l66.545,42.762l33.28,71.475c478.87,1012.5 1099.53,2538.2 1343.3,4057.07l2.9,20.9c47.029,564.604 353.75,1076.25 862.983,1440.77c524.462,374.566 1197.2,549.254 1893.82,491.025c1421.44,-118.059 2498.56,-1176.81 2400.18,-2359.97l-0.729,-10.558l0,-10.484c-7.955,-1183.32 195.312,-2541.67 604.025,-4037.54l23.145,-84.425l67.292,-55.696c1459.77,-1205.59 2281.53,-2980.03 2255.48,-4868.42c-47.741,-3419.06 -2868.2,-6161.96 -6286.88,-6114.5l-0.029,0.004Zm726.996,18104.7c-735.675,10.192 -1439.53,-200.658 -2004.5,-604.6c-640.904,-458.179 -1027.92,-1109.01 -1091.56,-1833.54c-229.325,-1417.17 -805.85,-2850.99 -1263.04,-3828.14c-1870.64,-1235.75 -3003.45,-3302.2 -3035.3,-5543.96c-51.354,-3723.67 2936.2,-6795.12 6659.46,-6846.88c3723.96,-51.72 6795.42,2935.62 6846.79,6659.29c28.23,2027.2 -840.558,3933.75 -2387.15,5245.17c-379.046,1409.79 -568.558,2686.06 -562.05,3794.78c115.729,1482.43 -1184.9,2802.52 -2906.55,2945.45c-85.362,7.1 -170.708,11.212 -256.075,12.446l-0.033,-0.017Z" style="fill:#ffdc7d;fill-rule:nonzero;"/><path d="M161361,22735.8l-1539.35,-7251.54l1642.06,1127.12l852.867,-1136.88l907.846,913.054l1319.45,-1338.4l-209.063,7420.21l-551.929,-15.537l169.254,-6017.29l-726.267,736.388l-850.695,-855.817l-787.759,1049.46l-938.229,-643.941l1252.17,5898.33l-540.35,114.808l0,0.034Z" style="fill:#ffdc7d;fill-rule:nonzero;"/><path d="M165556,25959.7l-4773.58,396.408l-159.859,-1923.75l4773.58,-396.408l159.879,1923.75l-0.021,0Z" style="fill:#ffdc7d;fill-rule:nonzero;"/><path d="M166259,25103.6l-6309.33,523.941l-257.516,-3096.86l6309.29,-523.942l257.534,3096.86l0.025,0Z" style="fill:#ffdc7d;fill-rule:nonzero;"/><defs><linearGradient id="_Linear1" x1="0" y1="0" x2="1" y2="0" gradientUnits="userSpaceOnUse" gradientTransform="matrix(17213.3,0,0,17213.3,26488.1,8606.64)"><stop offset="0" style="stop-color:#ff9e54;stop-opacity:1"/><stop offset="1" style="stop-color:#ffd154;stop-opacity:1"/></linearGradient><linearGradient id="_Linear2" x1="0" y1="0" x2="1" y2="0" gradientUnits="userSpaceOnUse" gradientTransform="matrix(7891.33,0,0,7891.33,38261.2,20246.5)"><stop offset="0" style="stop-color:#ff9e54;stop-opacity:1"/><stop offset="1" style="stop-color:#ffd154;stop-opacity:1"/></linearGradient><linearGradient id="_Linear3" x1="0" y1="0" x2="1" y2="0" gradientUnits="userSpaceOnUse" gradientTransform="matrix(1119.19,0,0,1119.19,59269.9,73612.6)"><stop offset="0" style="stop-color:#ff9e54;stop-opacity:1"/><stop offset="1" style="stop-color:#ffd154;stop-opacity:1"/></linearGradient><linearGradient id="_Linear4" x1="0" y1="0" x2="1" y2="0" gradientUnits="userSpaceOnUse" gradientTransform="matrix(1119.12,0,0,1119.12,108387,73612.6)"><stop offset="0" style="stop-color:#ff9e54;stop-opacity:1"/><stop offset="1" style="stop-color:#ffd154;stop-opacity:1"/></linearGradient><linearGradient id="_Linear5" x1="0" y1="0" x2="1" y2="0" gradientUnits="userSpaceOnUse" gradientTransform="matrix(32779.2,0,0,32779.2,67107.4,31289.4)"><stop offset="0" style="stop-color:#ff9e54;stop-opacity:1"/><stop offset="1" style="stop-color:#ffd154;stop-opacity:1"/></linearGradient></defs></svg>